<svg width="36" height="26" viewBox="0 0 36 26" fill="none" xmlns="http://www.w3.org/2000/svg">
<path d="M32.625 25.375H3.375C1.51425 25.375 0 23.8608 0 22V4C0 2.13925 1.51425 0.625 3.375 0.625H32.625C34.4857 0.625 36 2.13925 36 4V22C36 23.8608 34.4857 25.375 32.625 25.375ZM3.375 23.125H32.625C33.2449 23.125 33.75 22.621 33.75 22V4.35662L18.7324 17.2289C18.5209 17.41 18.261 17.5 18 17.5C17.739 17.5 17.4791 17.41 17.2676 17.2289L2.25 4.35662V22C2.25 22.621 2.75513 23.125 3.375 23.125ZM32.022 2.875H3.978L18 14.8934L32.022 2.875Z" fill="black"/>
</svg>
