<svg width="438" height="479" viewBox="0 0 438 479" fill="none" xmlns="http://www.w3.org/2000/svg">
<path d="M0.00149199 328.029L0.501391 328.019C0.565014 331.187 2.52126 334.281 6.62955 336.644L6.62969 336.644L245.956 474.394L245.706 474.827L245.956 474.394C250.573 477.053 256.96 478.236 263.572 477.963C270.179 477.69 276.953 475.965 282.327 472.871L282.577 473.304L282.327 472.871L418.151 394.694C424.13 391.252 427.011 386.915 426.925 382.952C426.92 382.751 426.927 382.003 426.935 380.968C426.945 379.787 426.958 378.233 426.962 376.691C426.965 375.236 426.961 373.786 426.939 372.65C426.928 372.081 426.912 371.596 426.892 371.229C426.881 371.046 426.87 370.897 426.857 370.785C426.846 370.684 426.837 370.638 426.835 370.626C426.834 370.623 426.834 370.622 426.834 370.623C426.825 370.597 426.817 370.575 426.809 370.555C426.796 370.566 426.782 370.578 426.767 370.592C426.613 370.735 426.425 370.96 426.196 371.26C426.084 371.407 425.966 371.565 425.841 371.732C425.717 371.899 425.586 372.075 425.45 372.252C424.915 372.949 424.262 373.73 423.51 374.21C423.127 374.455 422.699 374.635 422.231 374.676C421.757 374.718 421.275 374.613 420.797 374.338L181.472 236.588C176.853 233.931 170.466 232.749 163.854 233.022C157.247 233.295 150.473 235.019 145.099 238.111L9.27687 316.288C7.71356 317.188 6.31015 317.401 5.08356 317.259C3.8688 317.117 2.86299 316.631 2.08727 316.194C1.89439 316.086 1.71362 315.979 1.54893 315.881L1.54598 315.88C1.37847 315.781 1.23022 315.693 1.09437 315.618C0.845348 315.48 0.694406 315.417 0.606294 315.397C0.560031 315.508 0.510055 315.75 0.501408 316.22L0.501397 316.221L0.501393 316.226L0.501297 316.255L0.501119 316.361L0.500803 316.746L0.500332 318.089C0.500088 319.194 0.499983 320.657 0.500002 322.121C0.500021 323.585 0.500165 325.048 0.500418 326.153L0.500878 327.495L0.501166 327.879L0.501323 327.985C0.501384 328.013 0.501445 328.022 0.501418 328.02L0.00149199 328.029ZM0.00149199 328.029C-0.000341602 327.922 -0.000647201 316.321 0.00149199 316.211M0.00149199 328.029C0.0696406 331.423 2.16911 334.655 6.38026 337.077L0.00149199 316.211M0.00149199 316.211C0.0346693 314.405 0.639016 314.762 1.80253 315.45C3.2969 316.334 5.71364 317.763 9.02736 315.855L0.00149199 316.211Z" fill="#2672AB" stroke="black"/>
<path d="M421.047 362.307L420.797 362.74L181.472 224.987C176.853 222.329 170.466 221.147 163.854 221.421C157.247 221.694 150.474 223.419 145.099 226.513L9.27683 304.69L9.0274 304.256L9.27676 304.69C3.89154 307.788 1.01555 311.62 0.563662 315.244C0.116676 318.828 2.02306 322.393 6.62973 325.046L245.956 462.796C250.573 465.453 256.96 466.635 263.572 466.362C270.179 466.089 276.953 464.365 282.327 461.273L418.151 383.096C423.536 379.996 426.412 376.163 426.864 372.54C427.311 368.956 425.405 365.391 420.797 362.74L421.047 362.307Z" fill="#D1EBFF" stroke="black"/>
<path d="M246.206 464.074V474.536C250.803 477.095 257.079 478.231 263.572 477.963C270.077 477.694 276.743 476.018 282.077 473.014V462.557C276.67 465.479 270.051 467.095 263.613 467.361C257.222 467.625 250.958 466.561 246.206 464.074Z" fill="#2672AB" stroke="black"/>
<path d="M6.62981 336.644L245.206 473.963V463.518L6.13097 325.912L6.13082 325.912C3.42614 324.354 1.54538 322.449 0.500301 320.356C0.500263 320.928 0.500244 321.525 0.500244 322.121C0.500244 323.585 0.500359 325.049 0.500588 326.153L0.501018 327.495L0.501297 327.879L0.501452 327.985L0.501535 328.015L0.501545 328.02C0.565686 331.188 2.52167 334.281 6.62966 336.644L6.62981 336.644Z" fill="#2672AB" stroke="black"/>
<path d="M6.13078 323.941L6.3802 323.508L6.1307 323.941C3.98632 322.706 2.3618 321.253 1.26059 319.658C2.17957 321.646 3.94623 323.5 6.62971 325.046L245.956 462.796C250.573 465.453 256.96 466.635 263.572 466.362C270.179 466.089 276.953 464.365 282.327 461.272L418.151 383.096C421.967 380.898 424.51 378.338 425.828 375.743C424.267 378.007 421.854 380.148 418.65 381.992L282.826 460.168C277.288 463.356 270.351 465.114 263.613 465.392C256.88 465.67 250.288 464.474 245.457 461.691L6.13078 323.941Z" fill="#D1EBFF" stroke="black"/>
<path d="M106.302 365.648L106.302 365.648L191.477 414.674C192.222 415.103 193.291 415.311 194.435 415.264C195.573 415.217 196.729 414.92 197.632 414.4L229.61 395.993L229.86 396.426L229.61 395.993C230.524 395.467 230.921 394.868 230.98 394.392C231.035 393.956 230.822 393.452 230.088 393.03L230.088 393.03L144.913 344.003C144.913 344.003 144.913 344.003 144.913 344.003C144.168 343.574 143.099 343.368 141.955 343.415C140.817 343.463 139.661 343.761 138.758 344.281L106.78 362.685L106.78 362.685C105.866 363.211 105.469 363.81 105.409 364.286C105.355 364.722 105.568 365.226 106.302 365.648Z" fill="#D1EBFF" stroke="black"/>
<path d="M145.412 345.15L145.412 345.15C144.452 344.598 143.179 344.376 141.914 344.429C140.644 344.481 139.325 344.812 138.258 345.428L106.281 363.832L145.412 345.15ZM145.412 345.15L230.587 394.176L230.588 394.177C230.723 394.255 230.847 394.338 230.96 394.425C230.986 394.266 230.977 394.116 230.94 393.977C230.856 393.669 230.607 393.329 230.088 393.029C230.088 393.029 230.088 393.029 230.088 393.029L144.913 344.003C144.168 343.574 143.099 343.367 141.955 343.415C140.817 343.463 139.661 343.761 138.758 344.28L106.78 362.685L106.78 362.685C106.059 363.1 105.659 363.565 105.501 363.975C105.438 364.138 105.41 364.299 105.419 364.458M145.412 345.15L105.419 364.458M105.419 364.458C105.662 364.234 105.948 364.023 106.281 363.832L105.419 364.458Z" fill="#D1EBFF" stroke="black"/>
<mask id="path-8-inside-1_181_17" fill="white">
<path d="M322.149 409.605L316.291 406.233C314.121 404.987 310.616 404.981 308.461 406.221L302.64 409.572C300.482 410.812 300.494 412.829 302.664 414.078L308.522 417.45C310.692 418.7 314.197 418.706 316.352 417.463L322.173 414.111C324.331 412.871 324.319 410.855 322.149 409.605ZM304.382 399.378L298.52 396.005C296.353 394.756 292.848 394.753 290.691 395.993L284.869 399.344C282.715 400.584 282.727 402.601 284.893 403.85L290.752 407.223C292.922 408.469 296.427 408.478 298.584 407.235L304.406 403.884C306.56 402.644 306.548 400.627 304.382 399.378ZM286.975 389.358L281.113 385.988C278.946 384.739 275.441 384.733 273.284 385.973L267.462 389.324C265.308 390.564 265.317 392.581 267.487 393.83L273.345 397.203C275.515 398.452 279.02 398.458 281.177 397.218L286.999 393.867C289.153 392.627 289.141 390.607 286.975 389.358ZM269.568 379.34L159.266 315.855C157.097 314.605 153.591 314.599 151.436 315.839L145.614 319.191C143.458 320.431 143.469 322.448 145.638 323.697L255.938 387.185C258.108 388.431 261.613 388.437 263.767 387.197L269.592 383.846C271.747 382.606 271.734 380.589 269.568 379.34ZM147.717 309.207L141.859 305.834C139.69 304.585 136.184 304.579 134.029 305.819L128.207 309.17C126.052 310.41 126.062 312.43 128.231 313.676L134.09 317.049C136.259 318.298 139.764 318.304 141.92 317.064L147.742 313.713C149.897 312.473 149.886 310.456 147.717 309.207ZM130.31 299.187L124.452 295.814C122.283 294.568 118.777 294.562 116.622 295.802L110.799 299.153C108.644 300.393 108.655 302.41 110.824 303.659L116.683 307.032C118.851 308.278 122.357 308.287 124.513 307.044L130.335 303.692C132.49 302.452 132.479 300.436 130.31 299.187ZM112.903 289.169L99.3187 281.349C97.1498 280.099 93.6443 280.093 91.4892 281.336L85.6666 284.685C83.5115 285.928 83.5228 287.944 85.6914 289.194L99.2759 297.011C101.445 298.26 104.951 298.266 107.106 297.026L112.928 293.675C115.083 292.435 115.072 290.415 112.903 289.169ZM338.272 400.325L332.414 396.953C330.244 395.707 326.739 395.701 324.585 396.941L318.76 400.292C316.605 401.532 316.618 403.549 318.784 404.798L324.646 408.17C326.812 409.42 330.321 409.426 332.475 408.183L338.297 404.831C340.451 403.591 340.442 401.574 338.272 400.325ZM300.992 394.555L306.851 397.928C309.021 399.177 312.526 399.183 314.68 397.943L320.502 394.592C322.659 393.352 322.647 391.332 320.48 390.086L314.619 386.713C312.452 385.464 308.947 385.458 306.79 386.698L300.968 390.049C298.814 391.289 298.823 393.309 300.992 394.555ZM283.585 384.538L289.444 387.91C291.614 389.156 295.119 389.163 297.273 387.923L303.095 384.571C305.252 383.331 305.24 381.314 303.074 380.065L297.212 376.693C295.045 375.444 291.54 375.437 289.383 376.681L283.561 380.029C281.407 381.272 281.416 383.289 283.585 384.538ZM266.179 374.517L272.037 377.89C274.207 379.139 277.712 379.145 279.866 377.905L285.688 374.554C287.846 373.311 287.833 371.294 285.664 370.048L279.805 366.675C277.639 365.426 274.133 365.42 271.976 366.66L266.154 370.011C264 371.251 264.009 373.268 266.179 374.517ZM248.772 364.5L254.63 367.87C256.8 369.119 260.305 369.125 262.459 367.885L268.281 364.534C270.439 363.294 270.426 361.277 268.257 360.028L262.398 356.655C260.232 355.406 256.723 355.4 254.569 356.64L248.747 359.991C246.593 361.234 246.602 363.251 248.772 364.5ZM231.365 354.48L237.223 357.852C239.393 359.101 242.898 359.108 245.052 357.865L250.874 354.513C253.032 353.273 253.019 351.256 250.85 350.007L244.991 346.635C242.825 345.389 239.316 345.383 237.162 346.623L231.34 349.974C229.185 351.214 229.196 353.231 231.365 354.48ZM213.958 344.459L219.816 347.832C221.986 349.081 225.49 349.087 227.646 347.847L233.467 344.496C235.625 343.256 235.613 341.236 233.443 339.99L227.585 336.617C225.417 335.368 221.911 335.362 219.755 336.602L213.933 339.953C211.778 341.193 211.789 343.213 213.958 344.459ZM196.551 334.442L202.409 337.815C204.578 339.061 208.084 339.067 210.239 337.827L216.061 334.476C218.217 333.236 218.206 331.219 216.037 329.97L210.178 326.597C208.009 325.348 204.503 325.342 202.348 326.585L196.526 329.933C194.37 331.176 194.382 333.193 196.551 334.442ZM179.144 324.422L185.002 327.794C187.171 329.043 190.677 329.05 192.832 327.81L198.655 324.458C200.81 323.218 200.799 321.198 198.63 319.949L192.771 316.58C190.602 315.331 187.097 315.325 184.941 316.564L179.119 319.916C176.964 321.156 176.975 323.173 179.144 324.422ZM161.737 314.404L167.595 317.774C169.764 319.023 173.27 319.029 175.425 317.789L181.247 314.438C183.403 313.198 183.391 311.181 181.223 309.932L175.364 306.559C173.195 305.31 169.69 305.304 167.535 306.544L161.712 309.895C159.557 311.135 159.568 313.155 161.737 314.404ZM144.329 304.384L150.188 307.757C152.358 309.006 155.863 309.012 158.018 307.769L163.84 304.421C165.996 303.178 165.985 301.161 163.816 299.912L157.957 296.539C155.788 295.293 152.283 295.287 150.127 296.527L144.305 299.878C142.15 301.118 142.161 303.135 144.329 304.384ZM101.814 279.914L132.781 297.736C134.951 298.985 138.456 298.992 140.612 297.752L146.433 294.4C148.589 293.16 148.578 291.14 146.409 289.894L115.442 272.068C113.273 270.819 109.768 270.813 107.612 272.056L101.789 275.405C99.6343 276.648 99.645 278.664 101.814 279.914ZM355.23 391.085L338.04 381.19C336.121 380.087 333.016 380.081 331.109 381.177L324.389 385.043C322.482 386.143 322.491 387.929 324.41 389.035L341.6 398.927C343.523 400.033 346.624 400.039 348.534 398.942L355.252 395.073C357.158 393.976 357.149 392.191 355.23 391.085ZM307.007 379.014L313.766 382.905C315.686 384.011 318.787 384.017 320.697 382.92L327.415 379.051C329.321 377.954 329.312 376.169 327.393 375.063L320.633 371.172C318.714 370.066 315.609 370.06 313.702 371.16L306.982 375.026C305.075 376.123 305.084 377.908 307.007 379.014ZM303.291 372.9L310.008 369.033C311.915 367.934 311.905 366.148 309.986 365.042L303.226 361.152C301.307 360.046 298.202 360.043 296.295 361.14L289.575 365.006C287.668 366.106 287.677 367.891 289.597 368.997L296.36 372.887C298.279 373.993 301.381 373.996 303.291 372.9ZM285.884 362.879L292.601 359.013C294.508 357.916 294.498 356.128 292.579 355.025L285.819 351.132C283.897 350.029 280.795 350.023 278.888 351.119L272.168 354.989C270.261 356.085 270.271 357.871 272.193 358.977L278.953 362.867C280.872 363.973 283.974 363.979 285.884 362.879ZM268.477 352.862L275.194 348.996C277.101 347.896 277.091 346.111 275.172 345.005L268.413 341.114C266.493 340.008 263.388 340.002 261.481 341.102L254.761 344.968C252.854 346.065 252.864 347.853 254.783 348.956L261.546 352.85C263.465 353.953 266.567 353.959 268.477 352.862ZM251.07 342.842L257.787 338.975C259.694 337.879 259.685 336.09 257.765 334.984L251.006 331.094C249.086 329.991 245.982 329.985 244.075 331.082L237.354 334.948C235.447 336.048 235.457 337.833 237.376 338.939L244.136 342.829C246.058 343.935 249.16 343.941 251.07 342.842ZM233.663 332.824L240.38 328.955C242.287 327.858 242.278 326.073 240.358 324.967L233.599 321.077C231.677 319.971 228.575 319.965 226.667 321.064L219.949 324.931C218.041 326.027 218.05 327.813 219.97 328.919L226.73 332.809C228.65 333.915 231.753 333.921 233.663 332.824ZM216.255 322.804L222.973 318.938C224.881 317.838 224.871 316.053 222.951 314.947L216.191 311.056C214.271 309.95 211.167 309.947 209.259 311.044L202.541 314.91C200.633 316.01 200.644 317.795 202.564 318.901L209.323 322.792C211.243 323.898 214.346 323.901 216.255 322.804ZM185.156 308.881L191.916 312.771C193.837 313.877 196.94 313.883 198.847 312.784L205.565 308.917C207.473 307.821 207.464 306.032 205.544 304.929L198.784 301.039C196.863 299.933 193.761 299.927 191.852 301.024L185.135 304.89C183.226 305.99 183.236 307.775 185.156 308.881ZM167.749 298.861L174.509 302.754C176.429 303.857 179.533 303.863 181.441 302.766L188.158 298.9C190.067 297.8 190.057 296.015 188.137 294.909L181.377 291.019C179.457 289.913 176.353 289.907 174.445 291.006L167.728 294.872C165.819 295.969 165.829 297.758 167.749 298.861ZM150.342 288.843L157.102 292.734C159.022 293.84 162.125 293.846 164.034 292.746L170.751 288.88C172.659 287.78 172.65 285.995 170.73 284.889L163.97 280.998C162.05 279.895 158.946 279.889 157.038 280.986L150.321 284.852C148.413 285.952 148.422 287.737 150.342 288.843ZM117.87 270.152L139.695 282.713C141.615 283.819 144.719 283.825 146.627 282.726L153.344 278.859C155.252 277.763 155.243 275.977 153.323 274.871L131.498 262.31C129.578 261.204 126.474 261.198 124.566 262.295L117.848 266.164C115.94 267.261 115.95 269.046 117.87 270.152ZM371.354 381.805L364.594 377.914C362.672 376.808 359.57 376.802 357.66 377.902L350.943 381.768C349.036 382.865 349.045 384.654 350.964 385.756L357.724 389.647C359.646 390.753 362.748 390.759 364.658 389.662L371.375 385.793C373.282 384.696 373.273 382.911 371.354 381.805ZM346.887 379.432L353.604 375.565C355.514 374.469 355.502 372.683 353.583 371.577L346.823 367.687C344.904 366.581 341.799 366.575 339.892 367.675L333.175 371.541C331.265 372.638 331.274 374.426 333.196 375.529L339.956 379.419C341.875 380.525 344.977 380.531 346.887 379.432ZM329.48 369.414L336.197 365.548C338.107 364.448 338.095 362.663 336.176 361.557L329.416 357.667C327.497 356.561 324.392 356.558 322.485 357.654L315.768 361.521C313.858 362.62 313.867 364.406 315.79 365.512L322.549 369.402C324.469 370.508 327.573 370.511 329.48 369.414ZM305.078 347.634L298.361 351.503C296.451 352.6 296.46 354.385 298.383 355.491L305.142 359.382C307.062 360.488 310.163 360.494 312.073 359.394L318.791 355.528C320.701 354.431 320.688 352.643 318.769 351.54L312.009 347.649C310.09 346.543 306.985 346.537 305.078 347.634ZM287.671 337.617L280.951 341.483C279.044 342.58 279.053 344.368 280.976 345.474L287.736 349.364C289.655 350.467 292.757 350.473 294.667 349.377L301.384 345.51C303.291 344.411 303.281 342.625 301.362 341.519L294.602 337.629C292.683 336.523 289.578 336.517 287.671 337.617ZM270.264 327.596L263.544 331.462C261.637 332.562 261.647 334.348 263.569 335.454L270.329 339.344C272.248 340.45 275.35 340.456 277.26 339.356L283.977 335.49C285.884 334.39 285.874 332.605 283.955 331.502L277.195 327.609C275.276 326.506 272.171 326.5 270.264 327.596ZM252.857 317.579L246.137 321.445C244.23 322.542 244.24 324.33 246.162 325.433L252.922 329.324C254.841 330.43 257.943 330.436 259.853 329.339L266.57 325.47C268.477 324.373 268.468 322.588 266.548 321.482L259.788 317.591C257.869 316.485 254.764 316.479 252.857 317.579ZM235.451 307.559L228.732 311.425C226.824 312.525 226.833 314.31 228.754 315.416L235.515 319.306C237.434 320.412 240.536 320.415 242.446 319.319L249.163 315.452C251.07 314.353 251.061 312.567 249.141 311.461L242.382 307.571C240.462 306.465 237.357 306.462 235.451 307.559ZM217.675 297.752L211.693 301.194C209.582 302.41 209.592 304.387 211.717 305.609L217.736 309.073C219.861 310.298 223.295 310.304 225.406 309.088L231.388 305.645C233.498 304.43 233.489 302.453 231.363 301.231L225.344 297.767C223.22 296.542 219.786 296.536 217.675 297.752ZM200.33 299.056C202.454 300.277 205.888 300.283 207.999 299.068L213.981 295.625C216.092 294.409 216.081 292.435 213.957 291.21L207.937 287.746C205.813 286.525 202.379 286.519 200.268 287.731L194.286 291.177C192.175 292.389 192.185 294.367 194.31 295.588L200.33 299.056ZM182.922 289.035C185.047 290.257 188.481 290.263 190.592 289.05L196.574 285.605C198.685 284.392 198.674 282.415 196.55 281.193L190.53 277.726C188.406 276.504 184.972 276.498 182.861 277.714L176.879 281.157C174.768 282.372 174.778 284.346 176.903 285.571L182.922 289.035ZM159.496 275.551L165.515 279.015C167.64 280.24 171.074 280.246 173.185 279.03L179.167 275.587C181.278 274.372 181.267 272.395 179.143 271.173L173.124 267.709C170.998 266.484 167.565 266.478 165.454 267.694L159.472 271.136C157.36 272.352 157.371 274.329 159.496 275.551ZM134.363 261.085L148.108 268.997C150.233 270.219 153.667 270.225 155.778 269.01L161.76 265.567C163.871 264.351 163.86 262.377 161.736 261.152L147.991 253.24C145.866 252.019 142.432 252.013 140.321 253.228L134.339 256.671C132.228 257.886 132.238 259.864 134.363 261.085ZM387.104 372.312L373.358 364.4C371.234 363.178 367.802 363.172 365.691 364.387L359.707 367.83C357.595 369.046 357.608 371.02 359.732 372.245L373.478 380.157C375.601 381.378 379.036 381.384 381.145 380.169L387.129 376.726C389.24 375.511 389.228 373.533 387.104 372.312ZM361.611 357.636L355.591 354.172C353.467 352.95 350.032 352.944 347.92 354.16L341.94 357.603C339.828 358.818 339.837 360.792 341.964 362.017L347.981 365.481C350.105 366.703 353.54 366.709 355.652 365.496L361.632 362.051C363.744 360.838 363.735 358.861 361.611 357.636ZM324.557 351.997L330.574 355.461C332.701 356.685 336.133 356.692 338.245 355.476L344.226 352.033C346.337 350.818 346.328 348.84 344.204 347.619L338.184 344.152C336.06 342.93 332.625 342.924 330.513 344.14L324.533 347.582C322.421 348.798 322.43 350.775 324.557 351.997ZM326.797 337.598L320.777 334.134C318.653 332.913 315.218 332.907 313.106 334.122L307.126 337.565C305.014 338.777 305.023 340.755 307.15 341.979L313.167 345.443C315.291 346.665 318.726 346.671 320.838 345.456L326.819 342.013C328.93 340.797 328.921 338.823 326.797 337.598ZM309.39 327.581L303.37 324.114C301.246 322.892 297.811 322.886 295.699 324.102L289.719 327.545C287.607 328.76 287.616 330.737 289.74 331.959L295.761 335.423C297.884 336.648 301.319 336.654 303.431 335.438L309.412 331.993C311.523 330.78 311.514 328.803 309.39 327.581ZM291.983 317.561L285.963 314.097C283.839 312.872 280.404 312.866 278.293 314.081L272.312 317.524C270.2 318.74 270.209 320.717 272.336 321.939L278.354 325.406C280.478 326.627 283.912 326.634 286.024 325.418L292.005 321.975C294.116 320.76 294.107 318.782 291.983 317.561ZM274.573 307.54L268.556 304.076C266.432 302.855 262.997 302.849 260.886 304.064L254.905 307.507C252.793 308.722 252.802 310.697 254.926 311.921L260.947 315.385C263.071 316.607 266.506 316.613 268.617 315.398L274.598 311.955C276.71 310.739 276.7 308.765 274.573 307.54ZM257.166 297.523L251.149 294.059C249.025 292.834 245.59 292.828 243.479 294.044L237.498 297.487C235.386 298.702 235.396 300.679 237.519 301.901L243.54 305.365C245.664 306.59 249.099 306.596 251.21 305.38L257.191 301.938C259.303 300.722 259.293 298.745 257.166 297.523ZM239.76 287.503L233.742 284.039C231.617 282.817 228.183 282.811 226.072 284.023L220.09 287.469C217.979 288.682 217.989 290.659 220.114 291.881L226.133 295.348C228.258 296.569 231.691 296.576 233.803 295.36L239.784 291.917C241.896 290.702 241.886 288.727 239.76 287.503ZM202.707 281.863L208.726 285.327C210.85 286.549 214.284 286.558 216.396 285.343L222.378 281.897C224.489 280.684 224.478 278.707 222.354 277.485L216.334 274.018C214.21 272.797 210.776 272.791 208.665 274.006L202.683 277.449C200.571 278.664 200.582 280.642 202.707 281.863ZM185.3 271.843L191.32 275.31C193.444 276.532 196.878 276.538 198.989 275.322L204.971 271.88C207.082 270.664 207.071 268.687 204.947 267.465L198.927 264.001C196.803 262.776 193.369 262.77 191.258 263.986L185.276 267.428C183.164 268.644 183.175 270.621 185.3 271.843ZM181.582 265.305L187.564 261.859C189.675 260.647 189.665 258.669 187.54 257.445L181.52 253.981C179.396 252.759 175.962 252.753 173.851 253.969L167.869 257.411C165.757 258.627 165.768 260.601 167.893 261.826L173.912 265.29C176.037 266.511 179.471 266.518 181.582 265.305ZM150.486 251.805L156.505 255.269C158.63 256.494 162.063 256.5 164.175 255.285L170.157 251.842C172.268 250.626 172.257 248.649 170.133 247.427L164.113 243.963C161.989 242.739 158.555 242.733 156.444 243.948L150.462 247.391C148.351 248.606 148.361 250.584 150.486 251.805ZM383.113 367.142L390.065 371.145C391.933 372.217 394.952 372.223 396.807 371.157C398.662 370.088 398.653 368.351 396.786 367.279L389.83 363.275C387.966 362.2 384.947 362.197 383.092 363.263C381.237 364.329 381.246 366.066 383.113 367.142ZM365.345 356.914L372.298 360.917C374.165 361.99 377.181 361.996 379.036 360.929C380.891 359.86 380.882 358.124 379.015 357.051L372.063 353.048C370.195 351.972 367.179 351.969 365.324 353.036C363.469 354.102 363.478 355.842 365.345 356.914ZM347.939 346.897L354.891 350.897C356.758 351.972 359.774 351.978 361.629 350.909C363.484 349.843 363.475 348.106 361.608 347.031L354.656 343.027C352.788 341.955 349.772 341.949 347.917 343.015C346.062 344.085 346.071 345.821 347.939 346.897ZM330.532 336.876L337.484 340.88C339.351 341.952 342.367 341.958 344.222 340.892C346.077 339.822 346.068 338.086 344.201 337.01L337.249 333.01C335.382 331.935 332.365 331.929 330.51 332.998C328.655 334.064 328.664 335.801 330.532 336.876ZM313.125 326.856L320.077 330.859C321.944 331.935 324.961 331.938 326.816 330.871C328.671 329.805 328.661 328.065 326.794 326.993L319.842 322.99C317.975 321.917 314.958 321.911 313.103 322.978C311.248 324.047 311.257 325.784 313.125 326.856ZM295.718 316.839L302.67 320.839C304.537 321.914 307.554 321.92 309.409 320.851C311.264 319.785 311.254 318.048 309.387 316.973L302.435 312.973C300.568 311.897 297.551 311.891 295.696 312.96C293.841 314.027 293.851 315.763 295.718 316.839ZM278.311 306.818L285.263 310.822C287.13 311.894 290.147 311.9 292.002 310.834C293.857 309.764 293.848 308.028 291.98 306.955L285.028 302.952C283.161 301.877 280.144 301.874 278.289 302.94C276.434 304.006 276.444 305.743 278.311 306.818ZM260.904 296.801L267.856 300.801C269.724 301.877 272.74 301.883 274.595 300.813C276.45 299.747 276.441 298.011 274.573 296.935L267.621 292.932C265.754 291.859 262.738 291.853 260.883 292.92C259.028 293.989 259.037 295.726 260.904 296.801ZM243.494 286.781L250.449 290.784C252.317 291.856 255.333 291.862 257.188 290.796C259.043 289.727 259.034 287.99 257.166 286.915L250.214 282.914C248.347 281.839 245.331 281.833 243.476 282.902C241.621 283.969 241.63 285.705 243.494 286.781ZM226.088 276.76L233.042 280.764C234.91 281.839 237.926 281.842 239.781 280.776C241.636 279.706 241.627 277.97 239.76 276.897L232.807 272.894C230.939 271.819 227.922 271.816 226.067 272.882C224.212 273.951 224.222 275.688 226.088 276.76ZM208.681 266.743L215.634 270.743C217.502 271.819 220.519 271.825 222.373 270.755C224.228 269.689 224.219 267.953 222.353 266.877L215.4 262.877C213.532 261.801 210.516 261.795 208.66 262.865C206.806 263.931 206.815 265.668 208.681 266.743ZM191.274 256.723L198.227 260.726C200.095 261.798 203.111 261.804 204.966 260.738C206.821 259.669 206.812 257.932 204.945 256.86L197.992 252.856C196.125 251.781 193.108 251.778 191.253 252.844C189.398 253.911 189.408 255.647 191.274 256.723ZM166.141 242.257L180.82 250.706C182.687 251.781 185.705 251.787 187.559 250.718C189.414 249.651 189.405 247.915 187.538 246.839L172.86 238.391C170.993 237.316 167.975 237.31 166.12 238.379C164.266 239.445 164.275 241.182 166.141 242.257Z"/>
</mask>
<path d="M322.149 409.605L316.291 406.233C314.121 404.987 310.616 404.981 308.461 406.221L302.64 409.572C300.482 410.812 300.494 412.829 302.664 414.078L308.522 417.45C310.692 418.7 314.197 418.706 316.352 417.463L322.173 414.111C324.331 412.871 324.319 410.855 322.149 409.605ZM304.382 399.378L298.52 396.005C296.353 394.756 292.848 394.753 290.691 395.993L284.869 399.344C282.715 400.584 282.727 402.601 284.893 403.85L290.752 407.223C292.922 408.469 296.427 408.478 298.584 407.235L304.406 403.884C306.56 402.644 306.548 400.627 304.382 399.378ZM286.975 389.358L281.113 385.988C278.946 384.739 275.441 384.733 273.284 385.973L267.462 389.324C265.308 390.564 265.317 392.581 267.487 393.83L273.345 397.203C275.515 398.452 279.02 398.458 281.177 397.218L286.999 393.867C289.153 392.627 289.141 390.607 286.975 389.358ZM269.568 379.34L159.266 315.855C157.097 314.605 153.591 314.599 151.436 315.839L145.614 319.191C143.458 320.431 143.469 322.448 145.638 323.697L255.938 387.185C258.108 388.431 261.613 388.437 263.767 387.197L269.592 383.846C271.747 382.606 271.734 380.589 269.568 379.34ZM147.717 309.207L141.859 305.834C139.69 304.585 136.184 304.579 134.029 305.819L128.207 309.17C126.052 310.41 126.062 312.43 128.231 313.676L134.09 317.049C136.259 318.298 139.764 318.304 141.92 317.064L147.742 313.713C149.897 312.473 149.886 310.456 147.717 309.207ZM130.31 299.187L124.452 295.814C122.283 294.568 118.777 294.562 116.622 295.802L110.799 299.153C108.644 300.393 108.655 302.41 110.824 303.659L116.683 307.032C118.851 308.278 122.357 308.287 124.513 307.044L130.335 303.692C132.49 302.452 132.479 300.436 130.31 299.187ZM112.903 289.169L99.3187 281.349C97.1498 280.099 93.6443 280.093 91.4892 281.336L85.6666 284.685C83.5115 285.928 83.5228 287.944 85.6914 289.194L99.2759 297.011C101.445 298.26 104.951 298.266 107.106 297.026L112.928 293.675C115.083 292.435 115.072 290.415 112.903 289.169ZM338.272 400.325L332.414 396.953C330.244 395.707 326.739 395.701 324.585 396.941L318.76 400.292C316.605 401.532 316.618 403.549 318.784 404.798L324.646 408.17C326.812 409.42 330.321 409.426 332.475 408.183L338.297 404.831C340.451 403.591 340.442 401.574 338.272 400.325ZM300.992 394.555L306.851 397.928C309.021 399.177 312.526 399.183 314.68 397.943L320.502 394.592C322.659 393.352 322.647 391.332 320.48 390.086L314.619 386.713C312.452 385.464 308.947 385.458 306.79 386.698L300.968 390.049C298.814 391.289 298.823 393.309 300.992 394.555ZM283.585 384.538L289.444 387.91C291.614 389.156 295.119 389.163 297.273 387.923L303.095 384.571C305.252 383.331 305.24 381.314 303.074 380.065L297.212 376.693C295.045 375.444 291.54 375.437 289.383 376.681L283.561 380.029C281.407 381.272 281.416 383.289 283.585 384.538ZM266.179 374.517L272.037 377.89C274.207 379.139 277.712 379.145 279.866 377.905L285.688 374.554C287.846 373.311 287.833 371.294 285.664 370.048L279.805 366.675C277.639 365.426 274.133 365.42 271.976 366.66L266.154 370.011C264 371.251 264.009 373.268 266.179 374.517ZM248.772 364.5L254.63 367.87C256.8 369.119 260.305 369.125 262.459 367.885L268.281 364.534C270.439 363.294 270.426 361.277 268.257 360.028L262.398 356.655C260.232 355.406 256.723 355.4 254.569 356.64L248.747 359.991C246.593 361.234 246.602 363.251 248.772 364.5ZM231.365 354.48L237.223 357.852C239.393 359.101 242.898 359.108 245.052 357.865L250.874 354.513C253.032 353.273 253.019 351.256 250.85 350.007L244.991 346.635C242.825 345.389 239.316 345.383 237.162 346.623L231.34 349.974C229.185 351.214 229.196 353.231 231.365 354.48ZM213.958 344.459L219.816 347.832C221.986 349.081 225.49 349.087 227.646 347.847L233.467 344.496C235.625 343.256 235.613 341.236 233.443 339.99L227.585 336.617C225.417 335.368 221.911 335.362 219.755 336.602L213.933 339.953C211.778 341.193 211.789 343.213 213.958 344.459ZM196.551 334.442L202.409 337.815C204.578 339.061 208.084 339.067 210.239 337.827L216.061 334.476C218.217 333.236 218.206 331.219 216.037 329.97L210.178 326.597C208.009 325.348 204.503 325.342 202.348 326.585L196.526 329.933C194.37 331.176 194.382 333.193 196.551 334.442ZM179.144 324.422L185.002 327.794C187.171 329.043 190.677 329.05 192.832 327.81L198.655 324.458C200.81 323.218 200.799 321.198 198.63 319.949L192.771 316.58C190.602 315.331 187.097 315.325 184.941 316.564L179.119 319.916C176.964 321.156 176.975 323.173 179.144 324.422ZM161.737 314.404L167.595 317.774C169.764 319.023 173.27 319.029 175.425 317.789L181.247 314.438C183.403 313.198 183.391 311.181 181.223 309.932L175.364 306.559C173.195 305.31 169.69 305.304 167.535 306.544L161.712 309.895C159.557 311.135 159.568 313.155 161.737 314.404ZM144.329 304.384L150.188 307.757C152.358 309.006 155.863 309.012 158.018 307.769L163.84 304.421C165.996 303.178 165.985 301.161 163.816 299.912L157.957 296.539C155.788 295.293 152.283 295.287 150.127 296.527L144.305 299.878C142.15 301.118 142.161 303.135 144.329 304.384ZM101.814 279.914L132.781 297.736C134.951 298.985 138.456 298.992 140.612 297.752L146.433 294.4C148.589 293.16 148.578 291.14 146.409 289.894L115.442 272.068C113.273 270.819 109.768 270.813 107.612 272.056L101.789 275.405C99.6343 276.648 99.645 278.664 101.814 279.914ZM355.23 391.085L338.04 381.19C336.121 380.087 333.016 380.081 331.109 381.177L324.389 385.043C322.482 386.143 322.491 387.929 324.41 389.035L341.6 398.927C343.523 400.033 346.624 400.039 348.534 398.942L355.252 395.073C357.158 393.976 357.149 392.191 355.23 391.085ZM307.007 379.014L313.766 382.905C315.686 384.011 318.787 384.017 320.697 382.92L327.415 379.051C329.321 377.954 329.312 376.169 327.393 375.063L320.633 371.172C318.714 370.066 315.609 370.06 313.702 371.16L306.982 375.026C305.075 376.123 305.084 377.908 307.007 379.014ZM303.291 372.9L310.008 369.033C311.915 367.934 311.905 366.148 309.986 365.042L303.226 361.152C301.307 360.046 298.202 360.043 296.295 361.14L289.575 365.006C287.668 366.106 287.677 367.891 289.597 368.997L296.36 372.887C298.279 373.993 301.381 373.996 303.291 372.9ZM285.884 362.879L292.601 359.013C294.508 357.916 294.498 356.128 292.579 355.025L285.819 351.132C283.897 350.029 280.795 350.023 278.888 351.119L272.168 354.989C270.261 356.085 270.271 357.871 272.193 358.977L278.953 362.867C280.872 363.973 283.974 363.979 285.884 362.879ZM268.477 352.862L275.194 348.996C277.101 347.896 277.091 346.111 275.172 345.005L268.413 341.114C266.493 340.008 263.388 340.002 261.481 341.102L254.761 344.968C252.854 346.065 252.864 347.853 254.783 348.956L261.546 352.85C263.465 353.953 266.567 353.959 268.477 352.862ZM251.07 342.842L257.787 338.975C259.694 337.879 259.685 336.09 257.765 334.984L251.006 331.094C249.086 329.991 245.982 329.985 244.075 331.082L237.354 334.948C235.447 336.048 235.457 337.833 237.376 338.939L244.136 342.829C246.058 343.935 249.16 343.941 251.07 342.842ZM233.663 332.824L240.38 328.955C242.287 327.858 242.278 326.073 240.358 324.967L233.599 321.077C231.677 319.971 228.575 319.965 226.667 321.064L219.949 324.931C218.041 326.027 218.05 327.813 219.97 328.919L226.73 332.809C228.65 333.915 231.753 333.921 233.663 332.824ZM216.255 322.804L222.973 318.938C224.881 317.838 224.871 316.053 222.951 314.947L216.191 311.056C214.271 309.95 211.167 309.947 209.259 311.044L202.541 314.91C200.633 316.01 200.644 317.795 202.564 318.901L209.323 322.792C211.243 323.898 214.346 323.901 216.255 322.804ZM185.156 308.881L191.916 312.771C193.837 313.877 196.94 313.883 198.847 312.784L205.565 308.917C207.473 307.821 207.464 306.032 205.544 304.929L198.784 301.039C196.863 299.933 193.761 299.927 191.852 301.024L185.135 304.89C183.226 305.99 183.236 307.775 185.156 308.881ZM167.749 298.861L174.509 302.754C176.429 303.857 179.533 303.863 181.441 302.766L188.158 298.9C190.067 297.8 190.057 296.015 188.137 294.909L181.377 291.019C179.457 289.913 176.353 289.907 174.445 291.006L167.728 294.872C165.819 295.969 165.829 297.758 167.749 298.861ZM150.342 288.843L157.102 292.734C159.022 293.84 162.125 293.846 164.034 292.746L170.751 288.88C172.659 287.78 172.65 285.995 170.73 284.889L163.97 280.998C162.05 279.895 158.946 279.889 157.038 280.986L150.321 284.852C148.413 285.952 148.422 287.737 150.342 288.843ZM117.87 270.152L139.695 282.713C141.615 283.819 144.719 283.825 146.627 282.726L153.344 278.859C155.252 277.763 155.243 275.977 153.323 274.871L131.498 262.31C129.578 261.204 126.474 261.198 124.566 262.295L117.848 266.164C115.94 267.261 115.95 269.046 117.87 270.152ZM371.354 381.805L364.594 377.914C362.672 376.808 359.57 376.802 357.66 377.902L350.943 381.768C349.036 382.865 349.045 384.654 350.964 385.756L357.724 389.647C359.646 390.753 362.748 390.759 364.658 389.662L371.375 385.793C373.282 384.696 373.273 382.911 371.354 381.805ZM346.887 379.432L353.604 375.565C355.514 374.469 355.502 372.683 353.583 371.577L346.823 367.687C344.904 366.581 341.799 366.575 339.892 367.675L333.175 371.541C331.265 372.638 331.274 374.426 333.196 375.529L339.956 379.419C341.875 380.525 344.977 380.531 346.887 379.432ZM329.48 369.414L336.197 365.548C338.107 364.448 338.095 362.663 336.176 361.557L329.416 357.667C327.497 356.561 324.392 356.558 322.485 357.654L315.768 361.521C313.858 362.62 313.867 364.406 315.79 365.512L322.549 369.402C324.469 370.508 327.573 370.511 329.48 369.414ZM305.078 347.634L298.361 351.503C296.451 352.6 296.46 354.385 298.383 355.491L305.142 359.382C307.062 360.488 310.163 360.494 312.073 359.394L318.791 355.528C320.701 354.431 320.688 352.643 318.769 351.54L312.009 347.649C310.09 346.543 306.985 346.537 305.078 347.634ZM287.671 337.617L280.951 341.483C279.044 342.58 279.053 344.368 280.976 345.474L287.736 349.364C289.655 350.467 292.757 350.473 294.667 349.377L301.384 345.51C303.291 344.411 303.281 342.625 301.362 341.519L294.602 337.629C292.683 336.523 289.578 336.517 287.671 337.617ZM270.264 327.596L263.544 331.462C261.637 332.562 261.647 334.348 263.569 335.454L270.329 339.344C272.248 340.45 275.35 340.456 277.26 339.356L283.977 335.49C285.884 334.39 285.874 332.605 283.955 331.502L277.195 327.609C275.276 326.506 272.171 326.5 270.264 327.596ZM252.857 317.579L246.137 321.445C244.23 322.542 244.24 324.33 246.162 325.433L252.922 329.324C254.841 330.43 257.943 330.436 259.853 329.339L266.57 325.47C268.477 324.373 268.468 322.588 266.548 321.482L259.788 317.591C257.869 316.485 254.764 316.479 252.857 317.579ZM235.451 307.559L228.732 311.425C226.824 312.525 226.833 314.31 228.754 315.416L235.515 319.306C237.434 320.412 240.536 320.415 242.446 319.319L249.163 315.452C251.07 314.353 251.061 312.567 249.141 311.461L242.382 307.571C240.462 306.465 237.357 306.462 235.451 307.559ZM217.675 297.752L211.693 301.194C209.582 302.41 209.592 304.387 211.717 305.609L217.736 309.073C219.861 310.298 223.295 310.304 225.406 309.088L231.388 305.645C233.498 304.43 233.489 302.453 231.363 301.231L225.344 297.767C223.22 296.542 219.786 296.536 217.675 297.752ZM200.33 299.056C202.454 300.277 205.888 300.283 207.999 299.068L213.981 295.625C216.092 294.409 216.081 292.435 213.957 291.21L207.937 287.746C205.813 286.525 202.379 286.519 200.268 287.731L194.286 291.177C192.175 292.389 192.185 294.367 194.31 295.588L200.33 299.056ZM182.922 289.035C185.047 290.257 188.481 290.263 190.592 289.05L196.574 285.605C198.685 284.392 198.674 282.415 196.55 281.193L190.53 277.726C188.406 276.504 184.972 276.498 182.861 277.714L176.879 281.157C174.768 282.372 174.778 284.346 176.903 285.571L182.922 289.035ZM159.496 275.551L165.515 279.015C167.64 280.24 171.074 280.246 173.185 279.03L179.167 275.587C181.278 274.372 181.267 272.395 179.143 271.173L173.124 267.709C170.998 266.484 167.565 266.478 165.454 267.694L159.472 271.136C157.36 272.352 157.371 274.329 159.496 275.551ZM134.363 261.085L148.108 268.997C150.233 270.219 153.667 270.225 155.778 269.01L161.76 265.567C163.871 264.351 163.86 262.377 161.736 261.152L147.991 253.24C145.866 252.019 142.432 252.013 140.321 253.228L134.339 256.671C132.228 257.886 132.238 259.864 134.363 261.085ZM387.104 372.312L373.358 364.4C371.234 363.178 367.802 363.172 365.691 364.387L359.707 367.83C357.595 369.046 357.608 371.02 359.732 372.245L373.478 380.157C375.601 381.378 379.036 381.384 381.145 380.169L387.129 376.726C389.24 375.511 389.228 373.533 387.104 372.312ZM361.611 357.636L355.591 354.172C353.467 352.95 350.032 352.944 347.92 354.16L341.94 357.603C339.828 358.818 339.837 360.792 341.964 362.017L347.981 365.481C350.105 366.703 353.54 366.709 355.652 365.496L361.632 362.051C363.744 360.838 363.735 358.861 361.611 357.636ZM324.557 351.997L330.574 355.461C332.701 356.685 336.133 356.692 338.245 355.476L344.226 352.033C346.337 350.818 346.328 348.84 344.204 347.619L338.184 344.152C336.06 342.93 332.625 342.924 330.513 344.14L324.533 347.582C322.421 348.798 322.43 350.775 324.557 351.997ZM326.797 337.598L320.777 334.134C318.653 332.913 315.218 332.907 313.106 334.122L307.126 337.565C305.014 338.777 305.023 340.755 307.15 341.979L313.167 345.443C315.291 346.665 318.726 346.671 320.838 345.456L326.819 342.013C328.93 340.797 328.921 338.823 326.797 337.598ZM309.39 327.581L303.37 324.114C301.246 322.892 297.811 322.886 295.699 324.102L289.719 327.545C287.607 328.76 287.616 330.737 289.74 331.959L295.761 335.423C297.884 336.648 301.319 336.654 303.431 335.438L309.412 331.993C311.523 330.78 311.514 328.803 309.39 327.581ZM291.983 317.561L285.963 314.097C283.839 312.872 280.404 312.866 278.293 314.081L272.312 317.524C270.2 318.74 270.209 320.717 272.336 321.939L278.354 325.406C280.478 326.627 283.912 326.634 286.024 325.418L292.005 321.975C294.116 320.76 294.107 318.782 291.983 317.561ZM274.573 307.54L268.556 304.076C266.432 302.855 262.997 302.849 260.886 304.064L254.905 307.507C252.793 308.722 252.802 310.697 254.926 311.921L260.947 315.385C263.071 316.607 266.506 316.613 268.617 315.398L274.598 311.955C276.71 310.739 276.7 308.765 274.573 307.54ZM257.166 297.523L251.149 294.059C249.025 292.834 245.59 292.828 243.479 294.044L237.498 297.487C235.386 298.702 235.396 300.679 237.519 301.901L243.54 305.365C245.664 306.59 249.099 306.596 251.21 305.38L257.191 301.938C259.303 300.722 259.293 298.745 257.166 297.523ZM239.76 287.503L233.742 284.039C231.617 282.817 228.183 282.811 226.072 284.023L220.09 287.469C217.979 288.682 217.989 290.659 220.114 291.881L226.133 295.348C228.258 296.569 231.691 296.576 233.803 295.36L239.784 291.917C241.896 290.702 241.886 288.727 239.76 287.503ZM202.707 281.863L208.726 285.327C210.85 286.549 214.284 286.558 216.396 285.343L222.378 281.897C224.489 280.684 224.478 278.707 222.354 277.485L216.334 274.018C214.21 272.797 210.776 272.791 208.665 274.006L202.683 277.449C200.571 278.664 200.582 280.642 202.707 281.863ZM185.3 271.843L191.32 275.31C193.444 276.532 196.878 276.538 198.989 275.322L204.971 271.88C207.082 270.664 207.071 268.687 204.947 267.465L198.927 264.001C196.803 262.776 193.369 262.77 191.258 263.986L185.276 267.428C183.164 268.644 183.175 270.621 185.3 271.843ZM181.582 265.305L187.564 261.859C189.675 260.647 189.665 258.669 187.54 257.445L181.52 253.981C179.396 252.759 175.962 252.753 173.851 253.969L167.869 257.411C165.757 258.627 165.768 260.601 167.893 261.826L173.912 265.29C176.037 266.511 179.471 266.518 181.582 265.305ZM150.486 251.805L156.505 255.269C158.63 256.494 162.063 256.5 164.175 255.285L170.157 251.842C172.268 250.626 172.257 248.649 170.133 247.427L164.113 243.963C161.989 242.739 158.555 242.733 156.444 243.948L150.462 247.391C148.351 248.606 148.361 250.584 150.486 251.805ZM383.113 367.142L390.065 371.145C391.933 372.217 394.952 372.223 396.807 371.157C398.662 370.088 398.653 368.351 396.786 367.279L389.83 363.275C387.966 362.2 384.947 362.197 383.092 363.263C381.237 364.329 381.246 366.066 383.113 367.142ZM365.345 356.914L372.298 360.917C374.165 361.99 377.181 361.996 379.036 360.929C380.891 359.86 380.882 358.124 379.015 357.051L372.063 353.048C370.195 351.972 367.179 351.969 365.324 353.036C363.469 354.102 363.478 355.842 365.345 356.914ZM347.939 346.897L354.891 350.897C356.758 351.972 359.774 351.978 361.629 350.909C363.484 349.843 363.475 348.106 361.608 347.031L354.656 343.027C352.788 341.955 349.772 341.949 347.917 343.015C346.062 344.085 346.071 345.821 347.939 346.897ZM330.532 336.876L337.484 340.88C339.351 341.952 342.367 341.958 344.222 340.892C346.077 339.822 346.068 338.086 344.201 337.01L337.249 333.01C335.382 331.935 332.365 331.929 330.51 332.998C328.655 334.064 328.664 335.801 330.532 336.876ZM313.125 326.856L320.077 330.859C321.944 331.935 324.961 331.938 326.816 330.871C328.671 329.805 328.661 328.065 326.794 326.993L319.842 322.99C317.975 321.917 314.958 321.911 313.103 322.978C311.248 324.047 311.257 325.784 313.125 326.856ZM295.718 316.839L302.67 320.839C304.537 321.914 307.554 321.92 309.409 320.851C311.264 319.785 311.254 318.048 309.387 316.973L302.435 312.973C300.568 311.897 297.551 311.891 295.696 312.96C293.841 314.027 293.851 315.763 295.718 316.839ZM278.311 306.818L285.263 310.822C287.13 311.894 290.147 311.9 292.002 310.834C293.857 309.764 293.848 308.028 291.98 306.955L285.028 302.952C283.161 301.877 280.144 301.874 278.289 302.94C276.434 304.006 276.444 305.743 278.311 306.818ZM260.904 296.801L267.856 300.801C269.724 301.877 272.74 301.883 274.595 300.813C276.45 299.747 276.441 298.011 274.573 296.935L267.621 292.932C265.754 291.859 262.738 291.853 260.883 292.92C259.028 293.989 259.037 295.726 260.904 296.801ZM243.494 286.781L250.449 290.784C252.317 291.856 255.333 291.862 257.188 290.796C259.043 289.727 259.034 287.99 257.166 286.915L250.214 282.914C248.347 281.839 245.331 281.833 243.476 282.902C241.621 283.969 241.63 285.705 243.494 286.781ZM226.088 276.76L233.042 280.764C234.91 281.839 237.926 281.842 239.781 280.776C241.636 279.706 241.627 277.97 239.76 276.897L232.807 272.894C230.939 271.819 227.922 271.816 226.067 272.882C224.212 273.951 224.222 275.688 226.088 276.76ZM208.681 266.743L215.634 270.743C217.502 271.819 220.519 271.825 222.373 270.755C224.228 269.689 224.219 267.953 222.353 266.877L215.4 262.877C213.532 261.801 210.516 261.795 208.66 262.865C206.806 263.931 206.815 265.668 208.681 266.743ZM191.274 256.723L198.227 260.726C200.095 261.798 203.111 261.804 204.966 260.738C206.821 259.669 206.812 257.932 204.945 256.86L197.992 252.856C196.125 251.781 193.108 251.778 191.253 252.844C189.398 253.911 189.408 255.647 191.274 256.723ZM166.141 242.257L180.82 250.706C182.687 251.781 185.705 251.787 187.559 250.718C189.414 249.651 189.405 247.915 187.538 246.839L172.86 238.391C170.993 237.316 167.975 237.31 166.12 238.379C164.266 239.445 164.275 241.182 166.141 242.257Z" fill="#4F9FDB" stroke="black" stroke-width="2" mask="url(#path-8-inside-1_181_17)"/>
<mask id="path-9-inside-2_181_17" fill="white">
<path d="M322.149 407.991L316.291 404.618C314.121 403.369 310.616 403.363 308.461 404.603L302.64 407.954C300.482 409.194 300.494 411.214 302.664 412.46L308.522 415.833C310.692 417.082 314.197 417.088 316.352 415.848L322.173 412.497C324.331 411.257 324.319 409.237 322.149 407.991ZM304.382 397.763L298.52 394.391C296.353 393.142 292.848 393.136 290.691 394.376L284.869 397.727C282.715 398.967 282.727 400.984 284.893 402.233L290.752 405.605C292.922 406.854 296.427 406.861 298.584 405.621L304.406 402.269C306.56 401.029 306.548 399.009 304.382 397.763ZM286.975 387.743L281.113 384.37C278.946 383.121 275.441 383.115 273.284 384.358L267.462 387.706C265.308 388.949 265.317 390.966 267.487 392.215L273.345 395.588C275.515 396.834 279.02 396.84 281.177 395.6L286.999 392.249C289.153 391.009 289.141 388.992 286.975 387.743ZM269.568 377.723L159.266 314.237C157.097 312.988 153.591 312.982 151.436 314.222L145.614 317.573C143.458 318.813 143.469 320.833 145.638 322.082L255.938 385.568C258.108 386.817 261.613 386.823 263.767 385.583L269.592 382.232C271.747 380.989 271.734 378.972 269.568 377.723ZM147.717 307.589L141.859 304.217C139.69 302.971 136.184 302.962 134.029 304.205L128.207 307.556C126.052 308.796 126.062 310.813 128.231 312.062L134.09 315.434C136.259 316.684 139.764 316.69 141.92 315.45L147.742 312.095C149.897 310.855 149.886 308.838 147.717 307.589ZM130.31 297.572L124.452 294.199C122.283 292.95 118.777 292.944 116.622 294.184L110.799 297.535C108.644 298.775 108.655 300.795 110.824 302.041L116.683 305.414C118.851 306.663 122.357 306.669 124.513 305.429L130.335 302.078C132.49 300.838 132.479 298.818 130.31 297.572ZM112.903 287.552L99.3187 279.734C97.1498 278.485 93.6443 278.479 91.4892 279.719L85.6666 283.07C83.5115 284.31 83.5228 286.327 85.6914 287.576L99.2759 295.397C101.445 296.643 104.951 296.649 107.106 295.409L112.928 292.058C115.083 290.818 115.072 288.801 112.903 287.552ZM338.272 398.711L332.414 395.338C330.244 394.089 326.739 394.083 324.585 395.323L318.76 398.674C316.605 399.914 316.618 401.934 318.784 403.18L324.646 406.553C326.812 407.802 330.321 407.808 332.475 406.568L338.297 403.217C340.451 401.977 340.442 399.957 338.272 398.711ZM300.992 392.941L306.851 396.313C309.021 397.562 312.526 397.568 314.68 396.325L320.502 392.974C322.659 391.734 322.647 389.717 320.48 388.468L314.619 385.095C312.452 383.846 308.947 383.84 306.79 385.083L300.968 388.435C298.814 389.675 298.823 391.691 300.992 392.941ZM283.585 382.92L289.444 386.293C291.614 387.542 295.119 387.548 297.273 386.308L303.095 382.957C305.252 381.717 305.24 379.697 303.074 378.451L297.212 375.078C295.045 373.829 291.54 373.823 289.383 375.063L283.561 378.414C281.407 379.654 281.416 381.674 283.585 382.92ZM266.179 372.903L272.037 376.272C274.207 377.522 277.712 377.528 279.866 376.288L285.688 372.936C287.846 371.696 287.833 369.68 285.664 368.43L279.805 365.058C277.639 363.809 274.133 363.803 271.976 365.043L266.154 368.394C264 369.637 264.009 371.654 266.179 372.903ZM248.772 362.883L254.63 366.255C256.8 367.504 260.305 367.51 262.459 366.267L268.281 362.919C270.439 361.676 270.426 359.659 268.257 358.41L262.398 355.041C260.232 353.791 256.723 353.785 254.569 355.025L248.747 358.377C246.593 359.617 246.602 361.633 248.772 362.883ZM231.365 352.862L237.223 356.235C239.393 357.484 242.898 357.49 245.052 356.25L250.874 352.899C253.032 351.659 253.019 349.639 250.85 348.393L244.991 345.02C242.825 343.771 239.316 343.765 237.162 345.005L231.34 348.356C229.185 349.596 229.196 351.616 231.365 352.862ZM213.958 342.845L219.816 346.217C221.986 347.464 225.49 347.473 227.646 346.23L233.467 342.878C235.625 341.638 235.613 339.622 233.443 338.372L227.585 335C225.417 333.751 221.911 333.745 219.755 334.988L213.933 338.339C211.778 339.579 211.789 341.596 213.958 342.845ZM196.551 332.825L202.409 336.197C204.578 337.446 208.084 337.452 210.239 336.212L216.061 332.861C218.217 331.621 218.206 329.601 216.037 328.352L210.178 324.983C208.009 323.733 204.503 323.727 202.348 324.967L196.526 328.319C194.37 329.559 194.382 331.575 196.551 332.825ZM179.144 322.807L185.002 326.177C187.171 327.426 190.677 327.432 192.832 326.192L198.655 322.841C200.81 321.601 200.799 319.584 198.63 318.335L192.771 314.962C190.602 313.713 187.097 313.707 184.941 314.947L179.119 318.298C176.964 319.541 176.975 321.558 179.144 322.807ZM161.737 312.787L167.595 316.159C169.764 317.409 173.27 317.415 175.425 316.172L181.247 312.823C183.403 311.58 183.391 309.564 181.223 308.314L175.364 304.942C173.195 303.696 169.69 303.69 167.535 304.93L161.712 308.281C159.557 309.521 159.568 311.538 161.737 312.787ZM144.329 302.767L150.188 306.139C152.358 307.388 155.863 307.394 158.018 306.154L163.84 302.803C165.996 301.563 165.985 299.543 163.816 298.297L157.957 294.924C155.788 293.675 152.283 293.669 150.127 294.909L144.305 298.261C142.15 299.501 142.161 301.52 144.329 302.767ZM101.814 278.296L132.781 296.122C134.951 297.368 138.456 297.374 140.612 296.134L146.433 292.783C148.589 291.543 148.578 289.526 146.409 288.277L115.442 270.454C113.273 269.205 109.768 269.199 107.612 270.439L101.789 273.79C99.6343 275.03 99.645 277.05 101.814 278.296ZM355.23 389.467L338.04 379.575C336.121 378.469 333.016 378.463 331.109 379.563L324.389 383.429C322.482 384.526 322.491 386.314 324.41 387.417L341.6 397.312C343.523 398.418 346.624 398.421 348.534 397.325L355.252 393.458C357.158 392.359 357.149 390.573 355.23 389.467ZM307.007 377.4L313.766 381.29C315.686 382.396 318.787 382.399 320.697 381.302L327.415 377.436C329.321 376.336 329.312 374.551 327.393 373.445L320.633 369.555C318.714 368.449 315.609 368.446 313.702 369.542L306.982 373.409C305.075 374.508 305.084 376.294 307.007 377.4ZM303.291 371.282L310.008 367.416C311.915 366.319 311.905 364.531 309.986 363.428L303.226 359.537C301.307 358.431 298.202 358.425 296.295 359.522L289.575 363.391C287.668 364.488 287.677 366.273 289.597 367.379L296.36 371.27C298.279 372.376 301.381 372.382 303.291 371.282ZM285.884 361.265L292.601 357.399C294.508 356.299 294.498 354.513 292.579 353.408L285.819 349.517C283.897 348.411 280.795 348.405 278.888 349.505L272.168 353.371C270.261 354.471 270.271 356.256 272.193 357.362L278.953 361.253C280.872 362.355 283.974 362.362 285.884 361.265ZM268.477 351.244L275.194 347.378C277.101 346.281 277.091 344.493 275.172 343.39L268.413 339.497C266.493 338.394 263.388 338.388 261.481 339.484L254.761 343.351C252.854 344.45 252.864 346.236 254.783 347.342L261.546 351.232C263.465 352.338 266.567 352.344 268.477 351.244ZM251.07 341.227L257.787 337.358C259.694 336.261 259.685 334.476 257.765 333.37L251.006 329.479C249.086 328.373 245.982 328.367 244.075 329.467L237.354 333.333C235.447 334.43 235.457 336.218 237.376 337.321L244.136 341.215C246.058 342.318 249.16 342.324 251.07 341.227ZM233.663 331.207L240.38 327.341C242.287 326.241 242.278 324.455 240.358 323.35L233.599 319.459C231.677 318.356 228.575 318.35 226.667 319.447L219.949 323.313C218.041 324.413 218.05 326.198 219.97 327.304L226.73 331.195C228.65 332.3 231.753 332.307 233.663 331.207ZM216.255 321.186L222.973 317.32C224.881 316.223 224.871 314.435 222.951 313.332L216.191 309.442C214.271 308.336 211.167 308.33 209.259 309.426L202.541 313.296C200.633 314.392 200.644 316.178 202.564 317.284L209.323 321.174C211.243 322.28 214.346 322.286 216.255 321.186ZM185.156 307.266L191.916 311.157C193.837 312.26 196.94 312.266 198.847 311.169L205.565 307.303C207.473 306.203 207.464 304.418 205.544 303.312L198.784 299.421C196.863 298.315 193.761 298.309 191.852 299.409L185.135 303.275C183.226 304.375 183.236 306.16 185.156 307.266ZM167.749 297.246L174.509 301.137C176.429 302.243 179.533 302.249 181.441 301.149L188.158 297.283C190.067 296.183 190.057 294.397 188.137 293.292L181.377 289.401C179.457 288.298 176.353 288.292 174.445 289.389L167.728 293.255C165.819 294.355 165.829 296.14 167.749 297.246ZM150.342 287.226L157.102 291.119C159.022 292.222 162.125 292.228 164.034 291.131L170.751 287.262C172.659 286.165 172.65 284.38 170.73 283.274L163.97 279.384C162.05 278.278 158.946 278.272 157.038 279.371L150.321 283.238C148.413 284.334 148.422 286.123 150.342 287.226ZM117.87 268.538L139.695 281.099C141.615 282.205 144.719 282.211 146.627 281.111L153.344 277.245C155.252 276.145 155.243 274.36 153.323 273.254L131.498 260.693C129.578 259.587 126.474 259.581 124.566 260.68L117.848 264.547C115.94 265.643 115.95 267.432 117.87 268.538ZM371.354 380.187L364.594 376.297C362.672 375.191 359.57 375.188 357.66 376.285L350.943 380.151C349.036 381.251 349.045 383.036 350.964 384.142L357.724 388.032C359.646 389.138 362.748 389.144 364.658 388.045L371.375 384.178C373.282 383.079 373.273 381.293 371.354 380.187ZM346.887 377.817L353.604 373.951C355.514 372.851 355.502 371.066 353.583 369.96L346.823 366.069C344.904 364.963 341.799 364.96 339.892 366.057L333.175 369.923C331.265 371.023 331.274 372.808 333.196 373.914L339.956 377.805C341.875 378.911 344.977 378.917 346.887 377.817ZM329.48 367.797L336.197 363.931C338.107 362.834 338.095 361.045 336.176 359.943L329.416 356.052C327.497 354.946 324.392 354.94 322.485 356.04L315.768 359.906C313.858 361.003 313.867 362.788 315.79 363.894L322.549 367.785C324.469 368.89 327.573 368.897 329.48 367.797ZM305.078 346.019L298.361 349.886C296.451 350.982 296.46 352.771 298.383 353.877L305.142 357.767C307.062 358.873 310.163 358.876 312.073 357.779L318.791 353.913C320.701 352.813 320.688 351.028 318.769 349.922L312.009 346.032C310.09 344.926 306.985 344.92 305.078 346.019ZM287.671 335.999L280.951 339.865C279.044 340.965 279.053 342.75 280.976 343.856L287.736 347.747C289.655 348.853 292.757 348.859 294.667 347.759L301.384 343.893C303.291 342.796 303.281 341.008 301.362 339.902L294.602 336.011C292.683 334.908 289.578 334.902 287.671 335.999ZM270.264 325.982L263.544 329.848C261.637 330.945 261.647 332.733 263.569 333.836L270.329 337.727C272.248 338.832 275.35 338.839 277.26 337.742L283.977 333.873C285.884 332.776 285.874 330.99 283.955 329.885L277.195 325.994C275.276 324.888 272.171 324.882 270.264 325.982ZM252.857 315.961L246.137 319.828C244.23 320.927 244.24 322.713 246.162 323.819L252.922 327.709C254.841 328.815 257.943 328.818 259.853 327.721L266.57 323.855C268.477 322.755 268.468 320.97 266.548 319.864L259.788 315.974C257.869 314.868 254.764 314.865 252.857 315.961ZM235.451 305.944L228.732 309.81C226.824 310.907 226.833 312.695 228.754 313.798L235.515 317.689C237.434 318.795 240.536 318.801 242.446 317.701L249.163 313.835C251.07 312.738 251.061 310.95 249.141 309.847L242.382 305.953C240.462 304.85 237.357 304.844 235.451 305.944ZM217.675 296.134L211.693 299.577C209.582 300.792 209.592 302.77 211.717 303.991L217.736 307.458C219.861 308.68 223.295 308.686 225.406 307.47L231.388 304.028C233.498 302.812 233.489 300.838 231.363 299.613L225.344 296.149C223.22 294.928 219.786 294.921 217.675 296.134ZM200.33 297.438C202.454 298.663 205.888 298.669 207.999 297.453L213.981 294.007C216.092 292.795 216.081 290.818 213.957 289.596L207.937 286.129C205.813 284.907 202.379 284.901 200.268 286.117L194.286 289.559C192.175 290.775 192.185 292.752 194.31 293.974L200.33 297.438ZM182.922 287.421C185.047 288.642 188.481 288.648 190.592 287.433L196.574 283.99C198.685 282.775 198.674 280.797 196.55 279.576L190.53 276.112C188.406 274.887 184.972 274.881 182.861 276.096L176.879 279.539C174.768 280.755 174.778 282.732 176.903 283.954L182.922 287.421ZM159.496 273.936L165.515 277.4C167.64 278.622 171.074 278.628 173.185 277.413L179.167 273.97C181.278 272.754 181.267 270.78 179.143 269.555L173.124 266.091C170.998 264.87 167.565 264.863 165.454 266.079L159.472 269.522C157.36 270.737 157.371 272.712 159.496 273.936ZM134.363 259.471L148.108 267.38C150.233 268.605 153.667 268.611 155.778 267.395L161.76 263.953C163.871 262.737 163.86 260.76 161.736 259.538L147.991 251.626C145.866 250.404 142.432 250.398 140.321 251.611L134.339 255.056C132.228 256.269 132.238 258.246 134.363 259.471ZM387.104 370.694L373.358 362.785C371.234 361.56 367.802 361.554 365.691 362.77L359.707 366.213C357.595 367.428 357.608 369.405 359.732 370.627L373.478 378.539C375.601 379.761 379.036 379.767 381.145 378.551L387.129 375.109C389.24 373.896 389.228 371.919 387.104 370.694ZM361.611 356.022L355.591 352.558C353.467 351.333 350.032 351.327 347.92 352.542L341.94 355.985C339.828 357.201 339.837 359.178 341.964 360.4L347.981 363.864C350.105 365.088 353.54 365.094 355.652 363.879L361.632 360.436C363.744 359.22 363.735 357.243 361.611 356.022ZM324.557 350.382L330.574 353.846C332.701 355.068 336.133 355.074 338.245 353.858L344.226 350.416C346.337 349.2 346.328 347.226 344.204 346.001L338.184 342.537C336.06 341.315 332.625 341.309 330.513 342.522L324.533 345.965C322.421 347.18 322.43 349.157 324.557 350.382ZM326.797 335.984L320.777 332.517C318.653 331.295 315.218 331.289 313.106 332.505L307.126 335.947C305.014 337.163 305.023 339.14 307.15 340.362L313.167 343.826C315.291 345.051 318.726 345.057 320.838 343.841L326.819 340.398C328.93 339.183 328.921 337.206 326.797 335.984ZM309.39 325.964L303.37 322.5C301.246 321.275 297.811 321.269 295.699 322.484L289.719 325.927C287.607 327.143 287.616 329.12 289.74 330.342L295.761 333.809C297.884 335.03 301.319 335.036 303.431 333.821L309.412 330.378C311.523 329.162 311.514 327.185 309.39 325.964ZM291.983 315.943L285.963 312.479C283.839 311.257 280.404 311.251 278.293 312.467L272.312 315.91C270.2 317.125 270.209 319.099 272.336 320.324L278.354 323.788C280.478 325.01 283.912 325.016 286.024 323.8L292.005 320.358C294.116 319.142 294.107 317.168 291.983 315.943ZM274.573 305.926L268.556 302.462C266.432 301.237 262.997 301.231 260.886 302.447L254.905 305.889C252.793 307.105 252.802 309.082 254.926 310.304L260.947 313.768C263.071 314.993 266.506 314.999 268.617 313.783L274.598 310.34C276.71 309.125 276.7 307.148 274.573 305.926ZM257.166 295.906L251.149 292.441C249.025 291.22 245.59 291.214 243.479 292.426L237.498 295.872C235.386 297.085 235.396 299.062 237.519 300.287L243.54 303.751C245.664 304.972 249.099 304.978 251.21 303.763L257.191 300.32C259.303 299.104 259.293 297.13 257.166 295.906ZM239.76 285.888L233.742 282.421C231.617 281.199 228.183 281.193 226.072 282.409L220.09 285.852C217.979 287.067 217.989 289.045 220.114 290.266L226.133 293.73C228.258 294.955 231.691 294.961 233.803 293.745L239.784 290.303C241.896 289.087 241.886 287.11 239.76 285.888ZM202.707 280.246L208.726 283.713C210.85 284.935 214.284 284.941 216.396 283.725L222.378 280.282C224.489 279.067 224.478 277.09 222.354 275.868L216.334 272.404C214.21 271.179 210.776 271.173 208.665 272.389L202.683 275.831C200.571 277.047 200.582 279.024 202.707 280.246ZM185.3 270.229L191.32 273.693C193.444 274.914 196.878 274.92 198.989 273.708L204.971 270.262C207.082 269.046 207.071 267.072 204.947 265.848L198.927 262.383C196.803 261.162 193.369 261.156 191.258 262.371L185.276 265.814C183.164 267.03 183.175 269.004 185.3 270.229ZM181.582 263.687L187.564 260.245C189.675 259.029 189.665 257.052 187.54 255.83L181.52 252.366C179.396 251.141 175.962 251.135 173.851 252.351L167.869 255.794C165.757 257.009 165.768 258.986 167.893 260.208L173.912 263.672C176.037 264.897 179.471 264.903 181.582 263.687ZM150.486 250.188L156.505 253.655C158.63 254.877 162.063 254.883 164.175 253.667L170.157 250.224C172.268 249.009 172.257 247.035 170.133 245.81L164.113 242.346C161.989 241.124 158.555 241.118 156.444 242.331L150.462 245.776C148.351 246.989 148.361 248.966 150.486 250.188ZM383.113 365.527L390.065 369.527C391.933 370.603 394.952 370.609 396.807 369.539C398.662 368.473 398.653 366.737 396.786 365.661L389.83 361.658C387.966 360.585 384.947 360.579 383.092 361.646C381.237 362.715 381.246 364.452 383.113 365.527ZM365.345 355.299L372.298 359.3C374.165 360.375 377.181 360.381 379.036 359.312C380.891 358.246 380.882 356.509 379.015 355.434L372.063 351.43C370.195 350.358 367.179 350.352 365.324 351.418C363.469 352.487 363.478 354.224 365.345 355.299ZM347.939 345.279L354.891 349.282C356.758 350.355 359.774 350.361 361.629 349.295C363.484 348.225 363.475 346.489 361.608 345.413L354.656 341.413C352.788 340.338 349.772 340.331 347.917 341.401C346.062 342.467 346.071 344.204 347.939 345.279ZM330.532 335.259L337.484 339.262C339.351 340.338 342.367 340.341 344.222 339.274C346.077 338.208 346.068 336.471 344.201 335.396L337.249 331.393C335.382 330.32 332.365 330.314 330.51 331.38C328.655 332.45 328.664 334.186 330.532 335.259ZM313.125 325.241L320.077 329.242C321.944 330.317 324.961 330.323 326.816 329.254C328.671 328.188 328.661 326.451 326.794 325.376L319.842 321.375C317.975 320.3 314.958 320.294 313.103 321.363C311.248 322.429 311.257 324.166 313.125 325.241ZM295.718 315.221L302.67 319.224C304.537 320.297 307.554 320.303 309.409 319.237C311.264 318.167 311.254 316.431 309.387 315.358L302.435 311.355C300.568 310.279 297.551 310.276 295.696 311.343C293.841 312.409 293.851 314.146 295.718 315.221ZM278.311 305.204L285.263 309.204C287.13 310.279 290.147 310.286 292.002 309.216C293.857 308.15 293.848 306.413 291.98 305.338L285.028 301.335C283.161 300.262 280.144 300.256 278.289 301.322C276.434 302.392 276.444 304.128 278.311 305.204ZM260.904 295.183L267.856 299.187C269.724 300.259 272.74 300.265 274.595 299.199C276.45 298.13 276.441 296.393 274.573 295.318L267.621 291.317C265.754 290.242 262.738 290.236 260.883 291.305C259.028 292.371 259.037 294.108 260.904 295.183ZM243.494 285.163L250.449 289.166C252.317 290.242 255.333 290.248 257.188 289.179C259.043 288.109 259.034 286.376 257.166 285.3L250.214 281.297C248.347 280.225 245.331 280.218 243.476 281.285C241.621 282.354 241.63 284.091 243.494 285.163ZM226.088 275.146L233.042 279.146C234.91 280.221 237.926 280.228 239.781 279.158C241.636 278.092 241.627 276.355 239.76 275.28L232.807 271.28C230.939 270.204 227.922 270.198 226.067 271.267C224.212 272.334 224.222 274.07 226.088 275.146ZM208.681 265.125L215.634 269.129C217.502 270.201 220.519 270.207 222.373 269.141C224.228 268.072 224.219 266.335 222.353 265.263L215.4 261.259C213.532 260.184 210.516 260.181 208.66 261.247C206.806 262.313 206.815 264.05 208.681 265.125ZM191.274 255.108L198.227 259.108C200.095 260.184 203.111 260.19 204.966 259.121C206.821 258.054 206.812 256.318 204.945 255.242L197.992 251.239C196.125 250.167 193.108 250.16 191.253 251.227C189.398 252.296 189.408 254.033 191.274 255.108ZM166.141 240.643L180.82 249.088C182.687 250.163 185.705 250.17 187.559 249.103C189.414 248.034 189.405 246.297 187.538 245.225L172.86 236.774C170.993 235.701 167.975 235.695 166.12 236.761C164.266 237.831 164.275 239.567 166.141 240.643Z"/>
</mask>
<path d="M322.149 407.991L316.291 404.618C314.121 403.369 310.616 403.363 308.461 404.603L302.64 407.954C300.482 409.194 300.494 411.214 302.664 412.46L308.522 415.833C310.692 417.082 314.197 417.088 316.352 415.848L322.173 412.497C324.331 411.257 324.319 409.237 322.149 407.991ZM304.382 397.763L298.52 394.391C296.353 393.142 292.848 393.136 290.691 394.376L284.869 397.727C282.715 398.967 282.727 400.984 284.893 402.233L290.752 405.605C292.922 406.854 296.427 406.861 298.584 405.621L304.406 402.269C306.56 401.029 306.548 399.009 304.382 397.763ZM286.975 387.743L281.113 384.37C278.946 383.121 275.441 383.115 273.284 384.358L267.462 387.706C265.308 388.949 265.317 390.966 267.487 392.215L273.345 395.588C275.515 396.834 279.02 396.84 281.177 395.6L286.999 392.249C289.153 391.009 289.141 388.992 286.975 387.743ZM269.568 377.723L159.266 314.237C157.097 312.988 153.591 312.982 151.436 314.222L145.614 317.573C143.458 318.813 143.469 320.833 145.638 322.082L255.938 385.568C258.108 386.817 261.613 386.823 263.767 385.583L269.592 382.232C271.747 380.989 271.734 378.972 269.568 377.723ZM147.717 307.589L141.859 304.217C139.69 302.971 136.184 302.962 134.029 304.205L128.207 307.556C126.052 308.796 126.062 310.813 128.231 312.062L134.09 315.434C136.259 316.684 139.764 316.69 141.92 315.45L147.742 312.095C149.897 310.855 149.886 308.838 147.717 307.589ZM130.31 297.572L124.452 294.199C122.283 292.95 118.777 292.944 116.622 294.184L110.799 297.535C108.644 298.775 108.655 300.795 110.824 302.041L116.683 305.414C118.851 306.663 122.357 306.669 124.513 305.429L130.335 302.078C132.49 300.838 132.479 298.818 130.31 297.572ZM112.903 287.552L99.3187 279.734C97.1498 278.485 93.6443 278.479 91.4892 279.719L85.6666 283.07C83.5115 284.31 83.5228 286.327 85.6914 287.576L99.2759 295.397C101.445 296.643 104.951 296.649 107.106 295.409L112.928 292.058C115.083 290.818 115.072 288.801 112.903 287.552ZM338.272 398.711L332.414 395.338C330.244 394.089 326.739 394.083 324.585 395.323L318.76 398.674C316.605 399.914 316.618 401.934 318.784 403.18L324.646 406.553C326.812 407.802 330.321 407.808 332.475 406.568L338.297 403.217C340.451 401.977 340.442 399.957 338.272 398.711ZM300.992 392.941L306.851 396.313C309.021 397.562 312.526 397.568 314.68 396.325L320.502 392.974C322.659 391.734 322.647 389.717 320.48 388.468L314.619 385.095C312.452 383.846 308.947 383.84 306.79 385.083L300.968 388.435C298.814 389.675 298.823 391.691 300.992 392.941ZM283.585 382.92L289.444 386.293C291.614 387.542 295.119 387.548 297.273 386.308L303.095 382.957C305.252 381.717 305.24 379.697 303.074 378.451L297.212 375.078C295.045 373.829 291.54 373.823 289.383 375.063L283.561 378.414C281.407 379.654 281.416 381.674 283.585 382.92ZM266.179 372.903L272.037 376.272C274.207 377.522 277.712 377.528 279.866 376.288L285.688 372.936C287.846 371.696 287.833 369.68 285.664 368.43L279.805 365.058C277.639 363.809 274.133 363.803 271.976 365.043L266.154 368.394C264 369.637 264.009 371.654 266.179 372.903ZM248.772 362.883L254.63 366.255C256.8 367.504 260.305 367.51 262.459 366.267L268.281 362.919C270.439 361.676 270.426 359.659 268.257 358.41L262.398 355.041C260.232 353.791 256.723 353.785 254.569 355.025L248.747 358.377C246.593 359.617 246.602 361.633 248.772 362.883ZM231.365 352.862L237.223 356.235C239.393 357.484 242.898 357.49 245.052 356.25L250.874 352.899C253.032 351.659 253.019 349.639 250.85 348.393L244.991 345.02C242.825 343.771 239.316 343.765 237.162 345.005L231.34 348.356C229.185 349.596 229.196 351.616 231.365 352.862ZM213.958 342.845L219.816 346.217C221.986 347.464 225.49 347.473 227.646 346.23L233.467 342.878C235.625 341.638 235.613 339.622 233.443 338.372L227.585 335C225.417 333.751 221.911 333.745 219.755 334.988L213.933 338.339C211.778 339.579 211.789 341.596 213.958 342.845ZM196.551 332.825L202.409 336.197C204.578 337.446 208.084 337.452 210.239 336.212L216.061 332.861C218.217 331.621 218.206 329.601 216.037 328.352L210.178 324.983C208.009 323.733 204.503 323.727 202.348 324.967L196.526 328.319C194.37 329.559 194.382 331.575 196.551 332.825ZM179.144 322.807L185.002 326.177C187.171 327.426 190.677 327.432 192.832 326.192L198.655 322.841C200.81 321.601 200.799 319.584 198.63 318.335L192.771 314.962C190.602 313.713 187.097 313.707 184.941 314.947L179.119 318.298C176.964 319.541 176.975 321.558 179.144 322.807ZM161.737 312.787L167.595 316.159C169.764 317.409 173.27 317.415 175.425 316.172L181.247 312.823C183.403 311.58 183.391 309.564 181.223 308.314L175.364 304.942C173.195 303.696 169.69 303.69 167.535 304.93L161.712 308.281C159.557 309.521 159.568 311.538 161.737 312.787ZM144.329 302.767L150.188 306.139C152.358 307.388 155.863 307.394 158.018 306.154L163.84 302.803C165.996 301.563 165.985 299.543 163.816 298.297L157.957 294.924C155.788 293.675 152.283 293.669 150.127 294.909L144.305 298.261C142.15 299.501 142.161 301.52 144.329 302.767ZM101.814 278.296L132.781 296.122C134.951 297.368 138.456 297.374 140.612 296.134L146.433 292.783C148.589 291.543 148.578 289.526 146.409 288.277L115.442 270.454C113.273 269.205 109.768 269.199 107.612 270.439L101.789 273.79C99.6343 275.03 99.645 277.05 101.814 278.296ZM355.23 389.467L338.04 379.575C336.121 378.469 333.016 378.463 331.109 379.563L324.389 383.429C322.482 384.526 322.491 386.314 324.41 387.417L341.6 397.312C343.523 398.418 346.624 398.421 348.534 397.325L355.252 393.458C357.158 392.359 357.149 390.573 355.23 389.467ZM307.007 377.4L313.766 381.29C315.686 382.396 318.787 382.399 320.697 381.302L327.415 377.436C329.321 376.336 329.312 374.551 327.393 373.445L320.633 369.555C318.714 368.449 315.609 368.446 313.702 369.542L306.982 373.409C305.075 374.508 305.084 376.294 307.007 377.4ZM303.291 371.282L310.008 367.416C311.915 366.319 311.905 364.531 309.986 363.428L303.226 359.537C301.307 358.431 298.202 358.425 296.295 359.522L289.575 363.391C287.668 364.488 287.677 366.273 289.597 367.379L296.36 371.27C298.279 372.376 301.381 372.382 303.291 371.282ZM285.884 361.265L292.601 357.399C294.508 356.299 294.498 354.513 292.579 353.408L285.819 349.517C283.897 348.411 280.795 348.405 278.888 349.505L272.168 353.371C270.261 354.471 270.271 356.256 272.193 357.362L278.953 361.253C280.872 362.355 283.974 362.362 285.884 361.265ZM268.477 351.244L275.194 347.378C277.101 346.281 277.091 344.493 275.172 343.39L268.413 339.497C266.493 338.394 263.388 338.388 261.481 339.484L254.761 343.351C252.854 344.45 252.864 346.236 254.783 347.342L261.546 351.232C263.465 352.338 266.567 352.344 268.477 351.244ZM251.07 341.227L257.787 337.358C259.694 336.261 259.685 334.476 257.765 333.37L251.006 329.479C249.086 328.373 245.982 328.367 244.075 329.467L237.354 333.333C235.447 334.43 235.457 336.218 237.376 337.321L244.136 341.215C246.058 342.318 249.16 342.324 251.07 341.227ZM233.663 331.207L240.38 327.341C242.287 326.241 242.278 324.455 240.358 323.35L233.599 319.459C231.677 318.356 228.575 318.35 226.667 319.447L219.949 323.313C218.041 324.413 218.05 326.198 219.97 327.304L226.73 331.195C228.65 332.3 231.753 332.307 233.663 331.207ZM216.255 321.186L222.973 317.32C224.881 316.223 224.871 314.435 222.951 313.332L216.191 309.442C214.271 308.336 211.167 308.33 209.259 309.426L202.541 313.296C200.633 314.392 200.644 316.178 202.564 317.284L209.323 321.174C211.243 322.28 214.346 322.286 216.255 321.186ZM185.156 307.266L191.916 311.157C193.837 312.26 196.94 312.266 198.847 311.169L205.565 307.303C207.473 306.203 207.464 304.418 205.544 303.312L198.784 299.421C196.863 298.315 193.761 298.309 191.852 299.409L185.135 303.275C183.226 304.375 183.236 306.16 185.156 307.266ZM167.749 297.246L174.509 301.137C176.429 302.243 179.533 302.249 181.441 301.149L188.158 297.283C190.067 296.183 190.057 294.397 188.137 293.292L181.377 289.401C179.457 288.298 176.353 288.292 174.445 289.389L167.728 293.255C165.819 294.355 165.829 296.14 167.749 297.246ZM150.342 287.226L157.102 291.119C159.022 292.222 162.125 292.228 164.034 291.131L170.751 287.262C172.659 286.165 172.65 284.38 170.73 283.274L163.97 279.384C162.05 278.278 158.946 278.272 157.038 279.371L150.321 283.238C148.413 284.334 148.422 286.123 150.342 287.226ZM117.87 268.538L139.695 281.099C141.615 282.205 144.719 282.211 146.627 281.111L153.344 277.245C155.252 276.145 155.243 274.36 153.323 273.254L131.498 260.693C129.578 259.587 126.474 259.581 124.566 260.68L117.848 264.547C115.94 265.643 115.95 267.432 117.87 268.538ZM371.354 380.187L364.594 376.297C362.672 375.191 359.57 375.188 357.66 376.285L350.943 380.151C349.036 381.251 349.045 383.036 350.964 384.142L357.724 388.032C359.646 389.138 362.748 389.144 364.658 388.045L371.375 384.178C373.282 383.079 373.273 381.293 371.354 380.187ZM346.887 377.817L353.604 373.951C355.514 372.851 355.502 371.066 353.583 369.96L346.823 366.069C344.904 364.963 341.799 364.96 339.892 366.057L333.175 369.923C331.265 371.023 331.274 372.808 333.196 373.914L339.956 377.805C341.875 378.911 344.977 378.917 346.887 377.817ZM329.48 367.797L336.197 363.931C338.107 362.834 338.095 361.045 336.176 359.943L329.416 356.052C327.497 354.946 324.392 354.94 322.485 356.04L315.768 359.906C313.858 361.003 313.867 362.788 315.79 363.894L322.549 367.785C324.469 368.89 327.573 368.897 329.48 367.797ZM305.078 346.019L298.361 349.886C296.451 350.982 296.46 352.771 298.383 353.877L305.142 357.767C307.062 358.873 310.163 358.876 312.073 357.779L318.791 353.913C320.701 352.813 320.688 351.028 318.769 349.922L312.009 346.032C310.09 344.926 306.985 344.92 305.078 346.019ZM287.671 335.999L280.951 339.865C279.044 340.965 279.053 342.75 280.976 343.856L287.736 347.747C289.655 348.853 292.757 348.859 294.667 347.759L301.384 343.893C303.291 342.796 303.281 341.008 301.362 339.902L294.602 336.011C292.683 334.908 289.578 334.902 287.671 335.999ZM270.264 325.982L263.544 329.848C261.637 330.945 261.647 332.733 263.569 333.836L270.329 337.727C272.248 338.832 275.35 338.839 277.26 337.742L283.977 333.873C285.884 332.776 285.874 330.99 283.955 329.885L277.195 325.994C275.276 324.888 272.171 324.882 270.264 325.982ZM252.857 315.961L246.137 319.828C244.23 320.927 244.24 322.713 246.162 323.819L252.922 327.709C254.841 328.815 257.943 328.818 259.853 327.721L266.57 323.855C268.477 322.755 268.468 320.97 266.548 319.864L259.788 315.974C257.869 314.868 254.764 314.865 252.857 315.961ZM235.451 305.944L228.732 309.81C226.824 310.907 226.833 312.695 228.754 313.798L235.515 317.689C237.434 318.795 240.536 318.801 242.446 317.701L249.163 313.835C251.07 312.738 251.061 310.95 249.141 309.847L242.382 305.953C240.462 304.85 237.357 304.844 235.451 305.944ZM217.675 296.134L211.693 299.577C209.582 300.792 209.592 302.77 211.717 303.991L217.736 307.458C219.861 308.68 223.295 308.686 225.406 307.47L231.388 304.028C233.498 302.812 233.489 300.838 231.363 299.613L225.344 296.149C223.22 294.928 219.786 294.921 217.675 296.134ZM200.33 297.438C202.454 298.663 205.888 298.669 207.999 297.453L213.981 294.007C216.092 292.795 216.081 290.818 213.957 289.596L207.937 286.129C205.813 284.907 202.379 284.901 200.268 286.117L194.286 289.559C192.175 290.775 192.185 292.752 194.31 293.974L200.33 297.438ZM182.922 287.421C185.047 288.642 188.481 288.648 190.592 287.433L196.574 283.99C198.685 282.775 198.674 280.797 196.55 279.576L190.53 276.112C188.406 274.887 184.972 274.881 182.861 276.096L176.879 279.539C174.768 280.755 174.778 282.732 176.903 283.954L182.922 287.421ZM159.496 273.936L165.515 277.4C167.64 278.622 171.074 278.628 173.185 277.413L179.167 273.97C181.278 272.754 181.267 270.78 179.143 269.555L173.124 266.091C170.998 264.87 167.565 264.863 165.454 266.079L159.472 269.522C157.36 270.737 157.371 272.712 159.496 273.936ZM134.363 259.471L148.108 267.38C150.233 268.605 153.667 268.611 155.778 267.395L161.76 263.953C163.871 262.737 163.86 260.76 161.736 259.538L147.991 251.626C145.866 250.404 142.432 250.398 140.321 251.611L134.339 255.056C132.228 256.269 132.238 258.246 134.363 259.471ZM387.104 370.694L373.358 362.785C371.234 361.56 367.802 361.554 365.691 362.77L359.707 366.213C357.595 367.428 357.608 369.405 359.732 370.627L373.478 378.539C375.601 379.761 379.036 379.767 381.145 378.551L387.129 375.109C389.24 373.896 389.228 371.919 387.104 370.694ZM361.611 356.022L355.591 352.558C353.467 351.333 350.032 351.327 347.92 352.542L341.94 355.985C339.828 357.201 339.837 359.178 341.964 360.4L347.981 363.864C350.105 365.088 353.54 365.094 355.652 363.879L361.632 360.436C363.744 359.22 363.735 357.243 361.611 356.022ZM324.557 350.382L330.574 353.846C332.701 355.068 336.133 355.074 338.245 353.858L344.226 350.416C346.337 349.2 346.328 347.226 344.204 346.001L338.184 342.537C336.06 341.315 332.625 341.309 330.513 342.522L324.533 345.965C322.421 347.18 322.43 349.157 324.557 350.382ZM326.797 335.984L320.777 332.517C318.653 331.295 315.218 331.289 313.106 332.505L307.126 335.947C305.014 337.163 305.023 339.14 307.15 340.362L313.167 343.826C315.291 345.051 318.726 345.057 320.838 343.841L326.819 340.398C328.93 339.183 328.921 337.206 326.797 335.984ZM309.39 325.964L303.37 322.5C301.246 321.275 297.811 321.269 295.699 322.484L289.719 325.927C287.607 327.143 287.616 329.12 289.74 330.342L295.761 333.809C297.884 335.03 301.319 335.036 303.431 333.821L309.412 330.378C311.523 329.162 311.514 327.185 309.39 325.964ZM291.983 315.943L285.963 312.479C283.839 311.257 280.404 311.251 278.293 312.467L272.312 315.91C270.2 317.125 270.209 319.099 272.336 320.324L278.354 323.788C280.478 325.01 283.912 325.016 286.024 323.8L292.005 320.358C294.116 319.142 294.107 317.168 291.983 315.943ZM274.573 305.926L268.556 302.462C266.432 301.237 262.997 301.231 260.886 302.447L254.905 305.889C252.793 307.105 252.802 309.082 254.926 310.304L260.947 313.768C263.071 314.993 266.506 314.999 268.617 313.783L274.598 310.34C276.71 309.125 276.7 307.148 274.573 305.926ZM257.166 295.906L251.149 292.441C249.025 291.22 245.59 291.214 243.479 292.426L237.498 295.872C235.386 297.085 235.396 299.062 237.519 300.287L243.54 303.751C245.664 304.972 249.099 304.978 251.21 303.763L257.191 300.32C259.303 299.104 259.293 297.13 257.166 295.906ZM239.76 285.888L233.742 282.421C231.617 281.199 228.183 281.193 226.072 282.409L220.09 285.852C217.979 287.067 217.989 289.045 220.114 290.266L226.133 293.73C228.258 294.955 231.691 294.961 233.803 293.745L239.784 290.303C241.896 289.087 241.886 287.11 239.76 285.888ZM202.707 280.246L208.726 283.713C210.85 284.935 214.284 284.941 216.396 283.725L222.378 280.282C224.489 279.067 224.478 277.09 222.354 275.868L216.334 272.404C214.21 271.179 210.776 271.173 208.665 272.389L202.683 275.831C200.571 277.047 200.582 279.024 202.707 280.246ZM185.3 270.229L191.32 273.693C193.444 274.914 196.878 274.92 198.989 273.708L204.971 270.262C207.082 269.046 207.071 267.072 204.947 265.848L198.927 262.383C196.803 261.162 193.369 261.156 191.258 262.371L185.276 265.814C183.164 267.03 183.175 269.004 185.3 270.229ZM181.582 263.687L187.564 260.245C189.675 259.029 189.665 257.052 187.54 255.83L181.52 252.366C179.396 251.141 175.962 251.135 173.851 252.351L167.869 255.794C165.757 257.009 165.768 258.986 167.893 260.208L173.912 263.672C176.037 264.897 179.471 264.903 181.582 263.687ZM150.486 250.188L156.505 253.655C158.63 254.877 162.063 254.883 164.175 253.667L170.157 250.224C172.268 249.009 172.257 247.035 170.133 245.81L164.113 242.346C161.989 241.124 158.555 241.118 156.444 242.331L150.462 245.776C148.351 246.989 148.361 248.966 150.486 250.188ZM383.113 365.527L390.065 369.527C391.933 370.603 394.952 370.609 396.807 369.539C398.662 368.473 398.653 366.737 396.786 365.661L389.83 361.658C387.966 360.585 384.947 360.579 383.092 361.646C381.237 362.715 381.246 364.452 383.113 365.527ZM365.345 355.299L372.298 359.3C374.165 360.375 377.181 360.381 379.036 359.312C380.891 358.246 380.882 356.509 379.015 355.434L372.063 351.43C370.195 350.358 367.179 350.352 365.324 351.418C363.469 352.487 363.478 354.224 365.345 355.299ZM347.939 345.279L354.891 349.282C356.758 350.355 359.774 350.361 361.629 349.295C363.484 348.225 363.475 346.489 361.608 345.413L354.656 341.413C352.788 340.338 349.772 340.331 347.917 341.401C346.062 342.467 346.071 344.204 347.939 345.279ZM330.532 335.259L337.484 339.262C339.351 340.338 342.367 340.341 344.222 339.274C346.077 338.208 346.068 336.471 344.201 335.396L337.249 331.393C335.382 330.32 332.365 330.314 330.51 331.38C328.655 332.45 328.664 334.186 330.532 335.259ZM313.125 325.241L320.077 329.242C321.944 330.317 324.961 330.323 326.816 329.254C328.671 328.188 328.661 326.451 326.794 325.376L319.842 321.375C317.975 320.3 314.958 320.294 313.103 321.363C311.248 322.429 311.257 324.166 313.125 325.241ZM295.718 315.221L302.67 319.224C304.537 320.297 307.554 320.303 309.409 319.237C311.264 318.167 311.254 316.431 309.387 315.358L302.435 311.355C300.568 310.279 297.551 310.276 295.696 311.343C293.841 312.409 293.851 314.146 295.718 315.221ZM278.311 305.204L285.263 309.204C287.13 310.279 290.147 310.286 292.002 309.216C293.857 308.15 293.848 306.413 291.98 305.338L285.028 301.335C283.161 300.262 280.144 300.256 278.289 301.322C276.434 302.392 276.444 304.128 278.311 305.204ZM260.904 295.183L267.856 299.187C269.724 300.259 272.74 300.265 274.595 299.199C276.45 298.13 276.441 296.393 274.573 295.318L267.621 291.317C265.754 290.242 262.738 290.236 260.883 291.305C259.028 292.371 259.037 294.108 260.904 295.183ZM243.494 285.163L250.449 289.166C252.317 290.242 255.333 290.248 257.188 289.179C259.043 288.109 259.034 286.376 257.166 285.3L250.214 281.297C248.347 280.225 245.331 280.218 243.476 281.285C241.621 282.354 241.63 284.091 243.494 285.163ZM226.088 275.146L233.042 279.146C234.91 280.221 237.926 280.228 239.781 279.158C241.636 278.092 241.627 276.355 239.76 275.28L232.807 271.28C230.939 270.204 227.922 270.198 226.067 271.267C224.212 272.334 224.222 274.07 226.088 275.146ZM208.681 265.125L215.634 269.129C217.502 270.201 220.519 270.207 222.373 269.141C224.228 268.072 224.219 266.335 222.353 265.263L215.4 261.259C213.532 260.184 210.516 260.181 208.66 261.247C206.806 262.313 206.815 264.05 208.681 265.125ZM191.274 255.108L198.227 259.108C200.095 260.184 203.111 260.19 204.966 259.121C206.821 258.054 206.812 256.318 204.945 255.242L197.992 251.239C196.125 250.167 193.108 250.16 191.253 251.227C189.398 252.296 189.408 254.033 191.274 255.108ZM166.141 240.643L180.82 249.088C182.687 250.163 185.705 250.17 187.559 249.103C189.414 248.034 189.405 246.297 187.538 245.225L172.86 236.774C170.993 235.701 167.975 235.695 166.12 236.761C164.266 237.831 164.275 239.567 166.141 240.643Z" fill="#D1EBFF" stroke="black" stroke-width="2" mask="url(#path-9-inside-2_181_17)"/>
<path d="M186.912 227.24L186.912 227.24L417.504 360.042C421.848 362.544 425.663 362.412 428.382 360.362C431.133 358.288 432.917 354.142 432.917 348.292V167.953C432.917 162.115 431.135 155.781 428.241 150.267C425.344 144.749 421.361 140.104 417.005 137.597L417.005 137.597L186.413 4.79477C182.068 2.29327 178.254 2.42407 175.534 4.47363C172.783 6.54636 170.998 10.6916 170.998 16.5419V196.884C170.998 202.722 172.781 209.056 175.675 214.57C178.572 220.087 182.556 224.733 186.912 227.24Z" fill="#D1EBFF" stroke="black"/>
<path d="M412.464 145.433L412.464 145.433L412.713 145C412.464 145.433 412.463 145.432 412.461 145.431L412.453 145.427L412.422 145.409L412.298 145.337L411.808 145.055L409.896 143.954L402.641 139.775L376.742 124.858L298.137 79.585C241.098 46.7324 184.024 13.8599 183.641 13.6377C182.061 12.7173 180.077 13.8523 180.077 15.6673V196.884C180.077 206.046 184.453 214.962 191.464 219.409L419.583 350.773C419.583 350.773 419.584 350.773 419.584 350.774C419.605 350.786 419.63 350.8 419.658 350.815C419.737 350.86 419.843 350.92 419.963 350.99C421.693 351.97 423.841 350.722 423.841 348.746V167.953C423.841 158.75 420.807 150.226 412.464 145.433Z" fill="#03336E" stroke="black"/>
<path d="M420.364 350.282L420.363 350.282L191.864 218.701L191.855 218.696L191.846 218.69C185.19 214.474 180.893 205.888 180.893 196.884V15.6673C180.893 14.6971 181.715 14.1223 182.449 14.1223C182.723 14.1223 182.986 14.197 183.226 14.3356L412.052 146.132C421.149 151.358 423.023 160.945 423.023 167.953V348.746C423.023 349.855 422.089 350.522 421.242 350.522C420.933 350.522 420.636 350.439 420.364 350.282ZM412.464 145.433L412.464 145.433L412.713 145C412.464 145.433 412.463 145.432 412.461 145.431L412.453 145.427L412.422 145.409L412.298 145.337L411.808 145.055L409.896 143.954L402.641 139.775L376.742 124.858L298.137 79.585C241.098 46.7324 184.024 13.8599 183.641 13.6377C182.061 12.7173 180.077 13.8523 180.077 15.6673V196.884C180.077 206.046 184.453 214.962 191.464 219.409L191.465 219.41L191.496 219.428L191.62 219.499L192.11 219.781L194.019 220.88L201.267 225.054L227.136 239.951L305.649 285.162C362.505 317.902 419.386 350.657 419.962 350.989C421.691 351.971 423.841 350.723 423.841 348.746V167.953C423.841 158.75 420.807 150.226 412.464 145.433Z" fill="#03336E" stroke="black"/>
<path d="M421.586 135.169L421.835 134.736L421.586 135.169L190.995 2.36658C187.553 0.386658 184.446 0.0622253 181.966 1.01627C181.965 1.01691 181.959 1.01929 181.948 1.02426L181.936 1.03006C181.923 1.03574 181.909 1.04269 181.891 1.05106C181.843 1.07401 181.78 1.10507 181.703 1.14359C181.549 1.22052 181.346 1.32431 181.109 1.44662C180.833 1.58884 180.513 1.75522 180.175 1.9321C182.26 1.91342 184.542 2.56259 186.913 3.92819L417.504 136.731C417.504 136.731 417.504 136.731 417.504 136.731C422.074 139.361 426.173 144.176 429.126 149.802C432.082 155.433 433.918 161.925 433.918 167.953V348.292C433.918 352.849 432.862 356.554 431.002 359.095C431.325 358.912 431.628 358.74 431.889 358.591C432.134 358.452 432.341 358.334 432.492 358.246C432.568 358.202 432.629 358.167 432.673 358.141C432.699 358.126 432.715 358.116 432.725 358.11C432.731 358.106 432.734 358.104 432.735 358.104C435.616 356.089 437.502 351.879 437.502 345.867V165.528C437.502 159.689 435.718 153.356 432.823 147.842C429.926 142.324 425.942 137.677 421.586 135.169Z" fill="#2672AB" stroke="black"/>
<path d="M417.264 136.593L420.802 134.718L190.995 2.36691C187.554 0.387009 184.447 0.0624847 181.967 1.01631C181.966 1.01659 181.961 1.01889 181.948 1.02448C181.934 1.03093 181.915 1.03979 181.891 1.05128C181.843 1.07425 181.78 1.10529 181.703 1.14381C181.549 1.22075 181.346 1.32452 181.109 1.44685C180.833 1.58907 180.513 1.75545 180.175 1.93231C182.26 1.91364 184.542 2.56281 186.913 3.92841L417.264 136.593Z" fill="#4F9FDB" stroke="black"/>
<path d="M417.781 137.21L417.781 137.21L187.189 4.40756C185.523 3.44824 183.938 2.88214 182.464 2.66257C183.532 2.99255 184.631 3.47665 185.749 4.11972L185.749 4.11984L416.34 136.922C420.91 139.554 425.009 144.369 427.963 149.995C430.92 155.626 432.756 162.118 432.756 168.148V348.487C432.756 353.293 431.578 357.136 429.522 359.673C432.074 357.511 433.694 353.498 433.694 347.905V167.566C433.694 161.727 431.911 155.393 429.017 149.88C426.12 144.362 422.137 139.717 417.781 137.21Z" fill="#D1EBFF" stroke="black"/>
<path d="M245.265 156.176L284.566 246.799L364.506 163.145L333.832 137.265L290.702 209.747L290.194 210.6L289.811 209.684L269.405 160.865L245.265 156.176Z" fill="#0FBAB8" stroke="black"/>
<path d="M302.418 257.885L302.4 257.895L302.381 257.903L300.025 258.931L302.443 261.767L304.744 261.883C308.264 259.998 311.622 258.307 314.799 256.707L314.996 256.608L314.996 256.608C326.421 250.869 335.785 246.156 342.71 237.488C349.623 228.836 354.147 216.18 355.689 194.471L355.645 190.958L350.974 195.029C349.525 215.116 345.711 226.662 339.369 234.602C333.236 242.28 324.779 246.526 314.071 251.901C313.688 252.094 313.301 252.288 312.912 252.483L312.912 252.484C309.593 254.15 306.093 255.908 302.418 257.885Z" fill="#4F9FDB" stroke="black"/>
<path d="M326.053 136.647C318.65 128.989 311.642 120.234 305.216 110.622L304.727 110.047L303.309 109.237L302.311 109.58C302.311 109.58 302.31 109.58 302.31 109.58C288.091 114.494 271.318 111.599 253.854 101.343L249.551 98.8206L250.629 136.159L255.334 137.077L254.454 107.849L254.428 106.987L255.189 107.393C271.852 116.279 287.869 118.729 301.874 114.575L302.224 114.472L302.429 114.773C308.718 123.999 315.538 132.432 322.723 139.867L326.053 136.647Z" fill="#4F9FDB" stroke="black"/>
</svg>
