<svg width="720" height="296" viewBox="0 0 720 296" fill="none" xmlns="http://www.w3.org/2000/svg">
<circle cx="142.5" cy="142.5" r="142.5" fill="#5DC9F5"/>
<circle cx="142.5" cy="142.5" r="142.5" fill="#5DC9F5"/>
<circle cx="151.5" cy="153.5" r="142.5" fill="white"/>
<path d="M384.184 181.96C379 181.96 374.584 181.128 370.936 179.464C367.352 177.8 364.6 175.656 362.68 173.032C360.76 170.408 359.736 167.624 359.608 164.68C359.608 164.168 359.8 163.72 360.184 163.336C360.568 162.952 361.048 162.76 361.624 162.76H363.544C364.184 162.76 364.664 162.952 364.984 163.336C365.368 163.72 365.592 164.168 365.656 164.68C365.912 166.472 366.712 168.264 368.056 170.056C369.4 171.784 371.384 173.256 374.008 174.472C376.632 175.624 380.024 176.2 384.184 176.2C390.456 176.2 395.032 175.08 397.912 172.84C400.792 170.536 402.232 167.464 402.232 163.624C402.232 161.064 401.464 159.016 399.928 157.48C398.456 155.88 396.184 154.472 393.112 153.256C390.04 151.976 386.104 150.568 381.304 149.032C376.76 147.56 373.016 146.056 370.072 144.52C367.128 142.92 364.952 141 363.544 138.76C362.2 136.52 361.528 133.64 361.528 130.12C361.528 126.856 362.392 123.944 364.12 121.384C365.848 118.76 368.344 116.68 371.608 115.144C374.936 113.608 378.968 112.84 383.704 112.84C387.48 112.84 390.776 113.352 393.592 114.376C396.408 115.4 398.744 116.776 400.6 118.504C402.456 120.168 403.864 121.992 404.824 123.976C405.784 125.896 406.296 127.784 406.36 129.64C406.36 130.088 406.2 130.536 405.88 130.984C405.56 131.368 405.048 131.56 404.344 131.56H402.424C402.104 131.56 401.688 131.432 401.176 131.176C400.728 130.92 400.44 130.408 400.312 129.64C399.928 126.44 398.232 123.816 395.224 121.768C392.28 119.656 388.44 118.6 383.704 118.6C378.968 118.6 375.096 119.528 372.088 121.384C369.08 123.24 367.576 126.152 367.576 130.12C367.576 132.68 368.248 134.792 369.592 136.456C370.936 138.056 373.048 139.496 375.928 140.776C378.808 141.992 382.52 143.336 387.064 144.808C391.864 146.344 395.832 147.88 398.968 149.416C402.104 150.952 404.44 152.84 405.976 155.08C407.512 157.256 408.28 160.104 408.28 163.624C408.28 167.528 407.288 170.856 405.304 173.608C403.384 176.296 400.632 178.376 397.048 179.848C393.464 181.256 389.176 181.96 384.184 181.96ZM435.109 181.96C430.501 181.96 426.629 181 423.493 179.08C420.421 177.16 418.053 174.536 416.389 171.208C414.789 167.88 413.925 164.168 413.797 160.072C413.733 159.112 413.701 157.768 413.701 156.04C413.701 154.312 413.733 152.968 413.797 152.008C413.925 147.848 414.789 144.136 416.389 140.872C418.053 137.544 420.421 134.92 423.493 133C426.629 131.08 430.501 130.12 435.109 130.12C439.717 130.12 443.557 131.08 446.629 133C449.765 134.92 452.133 137.544 453.733 140.872C455.397 144.136 456.293 147.848 456.421 152.008C456.485 152.968 456.517 154.312 456.517 156.04C456.517 157.768 456.485 159.112 456.421 160.072C456.293 164.168 455.397 167.88 453.733 171.208C452.133 174.536 449.765 177.16 446.629 179.08C443.557 181 439.717 181.96 435.109 181.96ZM435.109 176.392C439.589 176.392 443.237 174.952 446.053 172.072C448.869 169.192 450.373 165.032 450.565 159.592C450.629 158.632 450.661 157.448 450.661 156.04C450.661 154.632 450.629 153.448 450.565 152.488C450.373 146.984 448.869 142.824 446.053 140.008C443.237 137.128 439.589 135.688 435.109 135.688C430.629 135.688 426.981 137.128 424.165 140.008C421.349 142.824 419.845 146.984 419.653 152.488C419.589 153.448 419.557 154.632 419.557 156.04C419.557 157.448 419.589 158.632 419.653 159.592C419.845 165.032 421.349 169.192 424.165 172.072C426.981 174.952 430.629 176.392 435.109 176.392ZM467.04 181C466.4 181 465.888 180.808 465.504 180.424C465.12 180.04 464.928 179.528 464.928 178.888V114.952C464.928 114.312 465.12 113.8 465.504 113.416C465.888 113.032 466.4 112.84 467.04 112.84H468.672C469.312 112.84 469.824 113.032 470.208 113.416C470.592 113.8 470.784 114.312 470.784 114.952V178.888C470.784 179.528 470.592 180.04 470.208 180.424C469.824 180.808 469.312 181 468.672 181H467.04ZM500.315 181.96C495.963 181.96 492.347 181.032 489.467 179.176C486.651 177.256 484.539 174.664 483.131 171.4C481.787 168.136 481.115 164.488 481.115 160.456V133.192C481.115 132.552 481.307 132.04 481.691 131.656C482.075 131.272 482.587 131.08 483.227 131.08H484.859C485.499 131.08 486.011 131.272 486.395 131.656C486.779 132.04 486.971 132.552 486.971 133.192V159.976C486.971 170.92 491.739 176.392 501.275 176.392C505.819 176.392 509.467 174.952 512.219 172.072C514.971 169.128 516.347 165.096 516.347 159.976V133.192C516.347 132.552 516.539 132.04 516.923 131.656C517.307 131.272 517.819 131.08 518.459 131.08H520.091C520.731 131.08 521.243 131.272 521.627 131.656C522.011 132.04 522.203 132.552 522.203 133.192V178.888C522.203 179.528 522.011 180.04 521.627 180.424C521.243 180.808 520.731 181 520.091 181H518.459C517.819 181 517.307 180.808 516.923 180.424C516.539 180.04 516.347 179.528 516.347 178.888V174.376C514.619 176.616 512.539 178.44 510.107 179.848C507.739 181.256 504.475 181.96 500.315 181.96ZM549.751 181C546.423 181 543.799 180.296 541.879 178.888C539.959 177.48 538.615 175.56 537.847 173.128C537.079 170.696 536.695 167.976 536.695 164.968V136.648H529.207C528.567 136.648 528.055 136.456 527.671 136.072C527.287 135.688 527.095 135.176 527.095 134.536V133.192C527.095 132.552 527.287 132.04 527.671 131.656C528.055 131.272 528.567 131.08 529.207 131.08H536.695V114.952C536.695 114.312 536.887 113.8 537.271 113.416C537.655 113.032 538.167 112.84 538.807 112.84H540.439C541.079 112.84 541.591 113.032 541.975 113.416C542.359 113.8 542.551 114.312 542.551 114.952V131.08H554.455C555.095 131.08 555.607 131.272 555.991 131.656C556.375 132.04 556.567 132.552 556.567 133.192V134.536C556.567 135.176 556.375 135.688 555.991 136.072C555.607 136.456 555.095 136.648 554.455 136.648H542.551V164.584C542.551 167.976 543.095 170.632 544.183 172.552C545.335 174.472 547.351 175.432 550.231 175.432H555.415C556.055 175.432 556.567 175.624 556.951 176.008C557.335 176.392 557.527 176.904 557.527 177.544V178.888C557.527 179.528 557.335 180.04 556.951 180.424C556.567 180.808 556.055 181 555.415 181H549.751ZM564.763 181C564.123 181 563.611 180.808 563.227 180.424C562.843 180.04 562.651 179.528 562.651 178.888V133.192C562.651 132.552 562.843 132.04 563.227 131.656C563.611 131.272 564.123 131.08 564.763 131.08H566.395C567.035 131.08 567.547 131.272 567.931 131.656C568.315 132.04 568.507 132.552 568.507 133.192V178.888C568.507 179.528 568.315 180.04 567.931 180.424C567.547 180.808 567.035 181 566.395 181H564.763ZM563.707 120.808C563.067 120.808 562.555 120.616 562.171 120.232C561.787 119.848 561.595 119.336 561.595 118.696V115.048C561.595 114.408 561.787 113.896 562.171 113.512C562.555 113.064 563.067 112.84 563.707 112.84H567.355C567.995 112.84 568.507 113.064 568.891 113.512C569.339 113.896 569.563 114.408 569.563 115.048V118.696C569.563 119.336 569.339 119.848 568.891 120.232C568.507 120.616 567.995 120.808 567.355 120.808H563.707ZM598.234 181.96C593.626 181.96 589.754 181 586.618 179.08C583.546 177.16 581.178 174.536 579.514 171.208C577.914 167.88 577.05 164.168 576.922 160.072C576.858 159.112 576.826 157.768 576.826 156.04C576.826 154.312 576.858 152.968 576.922 152.008C577.05 147.848 577.914 144.136 579.514 140.872C581.178 137.544 583.546 134.92 586.618 133C589.754 131.08 593.626 130.12 598.234 130.12C602.842 130.12 606.682 131.08 609.754 133C612.89 134.92 615.258 137.544 616.858 140.872C618.522 144.136 619.418 147.848 619.546 152.008C619.61 152.968 619.642 154.312 619.642 156.04C619.642 157.768 619.61 159.112 619.546 160.072C619.418 164.168 618.522 167.88 616.858 171.208C615.258 174.536 612.89 177.16 609.754 179.08C606.682 181 602.842 181.96 598.234 181.96ZM598.234 176.392C602.714 176.392 606.362 174.952 609.178 172.072C611.994 169.192 613.498 165.032 613.69 159.592C613.754 158.632 613.786 157.448 613.786 156.04C613.786 154.632 613.754 153.448 613.69 152.488C613.498 146.984 611.994 142.824 609.178 140.008C606.362 137.128 602.714 135.688 598.234 135.688C593.754 135.688 590.106 137.128 587.29 140.008C584.474 142.824 582.97 146.984 582.778 152.488C582.714 153.448 582.682 154.632 582.682 156.04C582.682 157.448 582.714 158.632 582.778 159.592C582.97 165.032 584.474 169.192 587.29 172.072C590.106 174.952 593.754 176.392 598.234 176.392ZM630.069 181C629.429 181 628.917 180.808 628.533 180.424C628.149 180.04 627.957 179.528 627.957 178.888V133.192C627.957 132.552 628.149 132.04 628.533 131.656C628.917 131.272 629.429 131.08 630.069 131.08H631.701C632.341 131.08 632.853 131.272 633.237 131.656C633.621 132.04 633.813 132.552 633.813 133.192V137.704C635.541 135.464 637.621 133.64 640.053 132.232C642.549 130.824 645.845 130.12 649.941 130.12C654.293 130.12 657.909 131.08 660.789 133C663.733 134.856 665.909 137.416 667.317 140.68C668.789 143.88 669.525 147.528 669.525 151.624V178.888C669.525 179.528 669.333 180.04 668.949 180.424C668.565 180.808 668.053 181 667.413 181H665.781C665.141 181 664.629 180.808 664.245 180.424C663.861 180.04 663.669 179.528 663.669 178.888V152.104C663.669 146.984 662.421 142.984 659.925 140.104C657.429 137.16 653.781 135.688 648.981 135.688C644.437 135.688 640.757 137.16 637.941 140.104C635.189 142.984 633.813 146.984 633.813 152.104V178.888C633.813 179.528 633.621 180.04 633.237 180.424C632.853 180.808 632.341 181 631.701 181H630.069ZM695.622 181.96C692.294 181.96 689.414 181.512 686.982 180.616C684.614 179.72 682.662 178.664 681.126 177.448C679.59 176.168 678.438 174.92 677.67 173.704C676.966 172.488 676.582 171.56 676.518 170.92C676.454 170.216 676.678 169.704 677.19 169.384C677.702 169 678.182 168.808 678.63 168.808H680.07C680.454 168.808 680.774 168.872 681.03 169C681.35 169.128 681.734 169.48 682.182 170.056C683.014 171.144 683.974 172.2 685.062 173.224C686.15 174.184 687.526 174.952 689.19 175.528C690.918 176.104 693.062 176.392 695.622 176.392C699.462 176.392 702.63 175.656 705.126 174.184C707.622 172.712 708.87 170.536 708.87 167.656C708.87 165.864 708.358 164.424 707.334 163.336C706.374 162.248 704.71 161.288 702.342 160.456C699.974 159.624 696.774 158.76 692.742 157.864C688.71 156.904 685.606 155.752 683.43 154.408C681.318 153.064 679.878 151.528 679.11 149.8C678.342 148.008 677.958 146.088 677.958 144.04C677.958 141.8 678.598 139.624 679.878 137.512C681.158 135.336 683.046 133.576 685.542 132.232C688.102 130.824 691.302 130.12 695.142 130.12C698.278 130.12 700.934 130.536 703.11 131.368C705.35 132.2 707.174 133.224 708.582 134.44C709.99 135.592 711.014 136.744 711.654 137.896C712.358 139.048 712.742 139.976 712.806 140.68C712.87 141.32 712.678 141.832 712.23 142.216C711.782 142.6 711.27 142.792 710.694 142.792H709.254C708.742 142.792 708.326 142.696 708.006 142.504C707.686 142.248 707.398 141.928 707.142 141.544C706.502 140.52 705.734 139.56 704.838 138.664C703.942 137.768 702.726 137.064 701.19 136.552C699.718 135.976 697.702 135.688 695.142 135.688C691.302 135.688 688.454 136.488 686.598 138.088C684.742 139.624 683.814 141.608 683.814 144.04C683.814 145.448 684.198 146.696 684.966 147.784C685.734 148.808 687.174 149.768 689.286 150.664C691.398 151.496 694.47 152.392 698.502 153.352C702.598 154.248 705.83 155.368 708.198 156.712C710.566 157.992 712.23 159.528 713.19 161.32C714.214 163.112 714.726 165.224 714.726 167.656C714.726 170.216 713.99 172.584 712.518 174.76C711.11 176.936 708.966 178.696 706.086 180.04C703.27 181.32 699.782 181.96 695.622 181.96Z" fill="#5DC9F5"/>
<path d="M58.84 181C57.88 181 57.112 180.776 56.536 180.328C55.96 179.816 55.544 179.208 55.288 178.504L34.168 116.68C34.04 116.36 33.976 116.072 33.976 115.816C33.976 115.24 34.168 114.76 34.552 114.376C34.936 113.992 35.416 113.8 35.992 113.8H42.232C43.064 113.8 43.704 114.024 44.152 114.472C44.6 114.92 44.856 115.336 44.92 115.72L62.776 168.232L80.536 115.72C80.728 115.336 81.016 114.92 81.4 114.472C81.848 114.024 82.488 113.8 83.32 113.8H89.56C90.072 113.8 90.52 113.992 90.904 114.376C91.352 114.76 91.576 115.24 91.576 115.816C91.576 116.072 91.512 116.36 91.384 116.68L70.264 178.504C70.008 179.208 69.592 179.816 69.016 180.328C68.504 180.776 67.736 181 66.712 181H58.84ZM104.835 181C104.195 181 103.651 180.808 103.203 180.424C102.755 179.976 102.531 179.432 102.531 178.792V116.104C102.531 115.4 102.755 114.856 103.203 114.472C103.651 114.024 104.195 113.8 104.835 113.8H145.443C146.147 113.8 146.691 114.024 147.075 114.472C147.523 114.856 147.747 115.4 147.747 116.104V120.808C147.747 121.448 147.523 121.992 147.075 122.44C146.691 122.888 146.147 123.112 145.443 123.112H113.187V142.6H143.331C144.035 142.6 144.579 142.824 144.963 143.272C145.411 143.656 145.635 144.2 145.635 144.904V149.32C145.635 149.96 145.411 150.504 144.963 150.952C144.579 151.336 144.035 151.528 143.331 151.528H113.187V171.688H146.211C146.915 171.688 147.459 171.912 147.843 172.36C148.291 172.808 148.515 173.384 148.515 174.088V178.792C148.515 179.432 148.291 179.976 147.843 180.424C147.459 180.808 146.915 181 146.211 181H104.835ZM183.68 181.96C177.984 181.96 173.184 181.096 169.28 179.368C165.376 177.64 162.4 175.4 160.352 172.648C158.368 169.896 157.312 166.952 157.184 163.816C157.184 163.304 157.376 162.856 157.76 162.472C158.144 162.088 158.624 161.896 159.2 161.896H165.536C166.304 161.896 166.88 162.088 167.264 162.472C167.648 162.792 167.968 163.208 168.224 163.72C168.544 165.128 169.28 166.536 170.432 167.944C171.648 169.288 173.312 170.408 175.424 171.304C177.6 172.2 180.352 172.648 183.68 172.648C188.8 172.648 192.576 171.784 195.008 170.056C197.504 168.264 198.752 165.832 198.752 162.76C198.752 160.712 198.112 159.048 196.832 157.768C195.552 156.488 193.536 155.336 190.784 154.312C188.032 153.288 184.48 152.168 180.128 150.952C175.456 149.672 171.52 148.232 168.32 146.632C165.184 145.032 162.848 143.048 161.312 140.68C159.776 138.248 159.008 135.176 159.008 131.464C159.008 127.88 159.968 124.712 161.888 121.96C163.808 119.144 166.56 116.936 170.144 115.336C173.728 113.672 178.048 112.84 183.104 112.84C187.136 112.84 190.688 113.384 193.76 114.472C196.832 115.56 199.392 117 201.44 118.792C203.488 120.584 205.024 122.504 206.048 124.552C207.136 126.6 207.712 128.584 207.776 130.504C207.776 130.952 207.584 131.4 207.2 131.848C206.88 132.232 206.4 132.424 205.76 132.424H199.136C198.688 132.424 198.208 132.296 197.696 132.04C197.248 131.784 196.896 131.304 196.64 130.6C196.256 128.168 194.848 126.152 192.416 124.552C190.048 122.952 186.944 122.152 183.104 122.152C179.2 122.152 176.064 122.888 173.696 124.36C171.328 125.832 170.144 128.136 170.144 131.272C170.144 133.256 170.688 134.92 171.776 136.264C172.928 137.608 174.752 138.792 177.248 139.816C179.808 140.776 183.136 141.864 187.232 143.08C192.416 144.424 196.672 145.896 200 147.496C203.392 149.032 205.888 150.984 207.488 153.352C209.088 155.72 209.888 158.76 209.888 162.472C209.888 166.568 208.8 170.088 206.624 173.032C204.448 175.912 201.376 178.12 197.408 179.656C193.504 181.192 188.928 181.96 183.68 181.96ZM224.085 181C223.445 181 222.901 180.808 222.453 180.424C222.005 179.976 221.781 179.432 221.781 178.792V116.104C221.781 115.4 222.005 114.856 222.453 114.472C222.901 114.024 223.445 113.8 224.085 113.8H230.325C231.029 113.8 231.573 114.024 231.957 114.472C232.405 114.856 232.629 115.4 232.629 116.104V139.432L256.725 115.432C257.045 115.176 257.493 114.856 258.069 114.472C258.645 114.024 259.445 113.8 260.469 113.8H267.285C267.861 113.8 268.341 113.992 268.725 114.376C269.109 114.76 269.301 115.24 269.301 115.816C269.301 116.264 269.141 116.648 268.821 116.968L240.405 145.96L270.741 177.736C271.061 178.12 271.221 178.536 271.221 178.984C271.221 179.56 271.029 180.04 270.645 180.424C270.261 180.808 269.813 181 269.301 181H262.197C261.109 181 260.245 180.776 259.605 180.328C259.029 179.88 258.645 179.56 258.453 179.368L232.629 152.968V178.792C232.629 179.432 232.405 179.976 231.957 180.424C231.573 180.808 231.029 181 230.325 181H224.085ZM276.336 181C275.824 181 275.376 180.808 274.992 180.424C274.608 180.04 274.416 179.56 274.416 178.984C274.416 178.728 274.448 178.44 274.512 178.12L298.031 116.104C298.288 115.4 298.64 114.856 299.088 114.472C299.6 114.024 300.304 113.8 301.2 113.8H309.264C310.16 113.8 310.864 114.024 311.376 114.472C311.888 114.856 312.24 115.4 312.432 116.104L335.952 178.12C336.08 178.44 336.144 178.728 336.144 178.984C336.144 179.56 335.952 180.04 335.568 180.424C335.184 180.808 334.704 181 334.128 181H327.984C327.152 181 326.544 180.808 326.16 180.424C325.776 179.976 325.52 179.592 325.392 179.272L320.4 166.408H290.064L285.072 179.272C285.008 179.592 284.752 179.976 284.304 180.424C283.92 180.808 283.344 181 282.576 181H276.336ZM293.04 157.096H317.424L305.232 124.648L293.04 157.096Z" fill="#1E1E1E" fill-opacity="0.933333"/>
</svg>
