<svg width="38" height="35" viewBox="0 0 38 35" fill="none" xmlns="http://www.w3.org/2000/svg">
<path d="M36.9657 25.9559C36.8256 25.1201 36.5323 24.3708 36.1119 23.7014L36.1285 23.7307C35.9041 23.3819 35.5324 23.1356 35.0978 23.0681L35.0895 23.0669L24.4388 21.4649C24.3723 21.4548 24.2963 21.4503 24.2191 21.4503C23.8059 21.4503 23.4306 21.6056 23.1563 21.8587C22.4379 22.5438 21.8572 23.3594 21.4594 24.2662L21.4404 24.3157C17.277 22.5461 14.0161 19.4568 12.1957 15.6206L12.1494 15.5114C13.1575 15.1166 14.0185 14.5676 14.7405 13.8858C15.0089 13.6316 15.1751 13.2794 15.1751 12.8902C15.1751 12.8126 15.168 12.7361 15.1549 12.6607L15.1561 12.6686L13.4663 2.57732C13.3939 2.15657 13.1326 1.80332 12.7692 1.59519L12.7621 1.59182C12.1137 1.22394 11.3549 0.952818 10.5462 0.822318L10.507 0.816693C10.0926 0.728943 9.61642 0.679443 9.12836 0.679443C9.09986 0.679443 9.07254 0.679443 9.04404 0.679443H9.04879H9.03692C4.55767 0.710943 0.93698 4.14557 0.909668 8.38682V8.38907C0.92748 23.0557 13.4722 34.9402 28.9525 34.9571C33.4365 34.9323 37.0655 31.4966 37.0928 27.2519V27.2497C37.094 27.2171 37.094 27.1788 37.094 27.1394C37.094 26.7198 37.0477 26.3103 36.9586 25.9154L36.9657 25.9537V25.9559ZM28.9549 32.1479C15.1122 32.1333 3.89504 21.5066 3.87961 8.39357C3.90217 5.69469 6.20829 3.51219 9.05592 3.49419C9.06779 3.49419 9.08442 3.49419 9.09867 3.49419C9.39436 3.49419 9.68292 3.52457 9.96079 3.58307L9.93467 3.57857C10.2114 3.62244 10.4548 3.68319 10.6887 3.76194L10.659 3.75294L12.0959 12.3412C11.4832 12.7676 10.7481 13.0736 9.95011 13.2052L9.91923 13.2097C9.21742 13.3301 8.69254 13.9049 8.69254 14.5957C8.69254 14.7599 8.72223 14.9174 8.77686 15.0637L8.77329 15.0536C10.9393 20.9227 15.7309 25.4621 21.7776 27.4713L21.926 27.5141C22.0697 27.5624 22.236 27.5894 22.4094 27.5894C22.6872 27.5894 22.9461 27.5186 23.1694 27.3937L23.1622 27.3971C23.5315 27.1901 23.794 26.8436 23.8712 26.4363L23.8724 26.4273C24.016 25.6421 24.339 24.9457 24.7986 24.3506L24.7879 24.3641L33.8521 25.7264C33.9329 25.9436 34.0053 26.2046 34.054 26.4723L34.0587 26.5016C34.1027 26.7007 34.1264 26.9302 34.1264 27.1642C34.1264 27.1912 34.1264 27.2182 34.1252 27.2463V27.2418C34.1098 29.9418 31.8049 32.1277 28.9572 32.1457H28.9549V32.1479Z" fill="black"/>
</svg>
